<?xml version="1.0" standalone="no"?>
<!DOCTYPE svg PUBLIC "-//W3C//DTD SVG 20010904//EN"
 "http://www.w3.org/TR/2001/REC-SVG-20010904/DTD/svg10.dtd">
<svg version="1.0" xmlns="http://www.w3.org/2000/svg"
 width="850.040384pt" height="867.274447pt" viewBox="0 0 850.040384 867.274447"
 preserveAspectRatio="xMidYMid meet">
<metadata>
Created by potrace 1.16, written by Peter Selinger 2001-2019
</metadata>
<g transform="translate(-101.959616,953.888519) scale(0.100000,-0.100000)"
fill="#000000" stroke="none">
<path d="M9310 9533 c-14 -2 -288 -40 -610 -84 -322 -44 -794 -109 -1050 -144
-402 -56 -1709 -236 -3525 -486 -280 -38 -590 -81 -688 -95 -98 -13 -192 -31
-209 -40 -35 -18 -61 -73 -52 -112 4 -18 251 -272 787 -809 430 -430 779 -784
777 -787 -3 -3 -187 -189 -410 -413 -1446 -1458 -3270 -3309 -3293 -3343 -10
-14 -17 -44 -17 -70 l0 -45 1009 -1005 c1373 -1368 1230 -1230 1280 -1230 52
0 90 19 126 62 32 39 395 424 1225 1303 333 352 756 800 940 995 184 195 476
506 650 690 174 184 412 436 529 560 116 124 217 227 223 229 6 2 369 -355
807 -792 532 -532 805 -798 823 -802 39 -10 80 7 104 42 22 33 15 -21 159
1163 35 289 93 768 130 1065 92 756 312 2535 450 3649 25 197 45 377 45 398 0
32 -7 47 -34 74 -31 31 -38 34 -92 33 -33 -1 -70 -4 -84 -6z"/>
</g>
</svg>
