<?xml version="1.0" standalone="no"?>
<!DOCTYPE svg PUBLIC "-//W3C//DTD SVG 20010904//EN"
 "http://www.w3.org/TR/2001/REC-SVG-20010904/DTD/svg10.dtd">
<svg version="1.0" xmlns="http://www.w3.org/2000/svg"
 width="881.826488pt" height="838.050167pt" viewBox="0 0 881.826488 838.050167"
 preserveAspectRatio="xMidYMid meet">
<metadata>
Created by potrace 1.16, written by Peter Selinger 2001-2019
</metadata>
<g transform="translate(-71.103882,944.550167) scale(0.100000,-0.100000)"
fill="#000000" stroke="none">
<path d="M5080 9441 c-14 -5 -115 -47 -225 -94 -223 -95 -754 -319 -1240 -524
-395 -167 -828 -346 -1125 -465 -1007 -404 -1626 -655 -1685 -683 -80 -38
-101 -65 -92 -119 6 -38 59 -123 145 -229 49 -62 55 -75 62 -134 10 -80 30
-103 180 -208 58 -40 132 -95 165 -122 l60 -49 9 -87 c5 -48 7 -89 4 -92 -2
-3 -26 -9 -52 -14 -62 -11 -74 -24 -87 -96 -21 -111 8 -235 62 -268 11 -6 35
-44 53 -83 19 -41 46 -80 65 -95 l32 -25 -26 -495 c-60 -1164 -77 -1680 -91
-2794 l-6 -510 -23 -25 c-32 -36 -45 -64 -45 -100 0 -23 -9 -39 -36 -63 -39
-34 -64 -81 -64 -121 0 -14 -10 -33 -23 -43 -38 -29 -47 -57 -47 -135 l0 -74
-32 -9 c-45 -14 -68 -62 -68 -142 l0 -63 -75 0 c-67 0 -79 -3 -100 -24 -32
-32 -37 -69 -33 -219 3 -116 5 -128 26 -149 l23 -23 1077 0 c592 0 2535 4
4317 9 2806 7 3244 10 3268 23 48 24 60 71 55 203 -5 125 -21 173 -60 186 -13
5 -52 8 -88 8 l-65 1 -6 80 c-7 96 -19 122 -65 141 -34 14 -34 15 -34 80 0 63
-2 68 -35 100 -23 21 -35 42 -35 59 0 35 -21 73 -64 114 -25 24 -36 44 -36 63
0 34 -20 76 -49 102 -20 19 -21 27 -21 313 0 853 -27 1715 -94 3031 l-25 473
39 35 c22 20 47 57 60 89 12 30 39 72 60 93 24 23 43 55 50 82 16 57 8 186
-14 228 -16 31 -24 36 -88 47 l-38 6 0 83 c0 51 5 88 13 98 11 14 64 54 272
205 39 28 82 64 97 80 27 29 48 87 48 135 0 19 25 59 80 130 169 216 163 256
-47 346 -65 28 -413 168 -773 312 -835 334 -1324 532 -1670 678 -151 63 -331
138 -400 167 -122 51 -939 399 -1210 515 -143 62 -190 74 -230 61z m381 -352
c156 -67 367 -158 469 -201 328 -141 846 -358 1230 -515 277 -113 1797 -725
2000 -805 69 -27 128 -52 132 -56 4 -4 -12 -29 -36 -56 l-42 -49 -169 72 c-92
40 -211 90 -264 111 -53 21 -220 90 -371 153 -151 63 -617 258 -1035 432 -418
175 -1093 456 -1500 626 -407 170 -747 309 -756 309 -10 0 -156 -58 -326 -129
-169 -71 -411 -171 -538 -224 -126 -52 -396 -165 -600 -250 -203 -85 -548
-229 -765 -320 -217 -91 -494 -206 -615 -257 -234 -98 -471 -197 -755 -315
-96 -40 -247 -103 -335 -140 l-160 -67 -37 42 c-21 23 -38 48 -38 54 0 7 262
117 582 246 321 128 822 330 1113 448 467 188 664 269 1271 523 77 33 381 162
675 288 499 214 536 228 560 216 14 -8 153 -68 310 -136z m171 -253 c282 -118
578 -242 658 -276 80 -34 251 -106 380 -160 129 -53 388 -162 575 -240 338
-142 592 -248 1235 -518 184 -77 382 -161 440 -186 l105 -45 -112 -1 c-73 0
-114 4 -119 11 -10 16 -136 74 -433 199 -285 119 -1045 439 -1331 560 -228 97
-1645 686 -1793 746 -59 24 -113 44 -121 44 -7 0 -105 -39 -217 -86 -112 -47
-260 -108 -329 -136 -69 -27 -289 -119 -490 -203 -201 -84 -455 -190 -565
-235 -110 -45 -290 -120 -400 -167 -110 -47 -375 -158 -590 -248 -764 -320
-1026 -433 -1064 -459 -36 -25 -44 -27 -137 -24 l-99 3 215 92 c118 50 314
133 435 183 121 51 348 146 505 212 157 66 422 178 590 248 168 70 613 257
990 415 377 158 748 314 825 345 77 32 183 76 235 99 52 22 96 40 97 41 1 0
233 -96 515 -214z m-365 -35 c126 -54 286 -121 1138 -476 154 -64 348 -145
430 -180 256 -107 1293 -544 1340 -564 12 -5 -33 -8 -115 -6 l-135 2 -210 91
c-115 49 -473 201 -795 337 -602 254 -732 309 -1315 558 -187 79 -373 158
-414 175 l-74 31 -40 -20 c-34 -18 -692 -297 -1162 -494 -183 -76 -626 -264
-1030 -435 -165 -70 -361 -152 -435 -183 l-135 -55 -133 -5 c-74 -3 -132 -4
-130 -2 6 7 1193 505 2153 904 385 160 745 311 800 336 55 24 106 44 112 44 7
1 74 -26 150 -58z m33 -174 c69 -30 402 -173 740 -317 338 -145 719 -307 845
-362 127 -54 376 -160 555 -236 l325 -137 -1323 -3 c-727 -1 -1916 -1 -2643 0
l-1320 3 128 54 c70 30 313 133 538 229 226 96 736 313 1135 482 399 169 745
317 770 329 64 29 105 22 250 -42z m3130 -1154 l65 -32 -3380 0 -3380 -1 75
34 75 34 3240 -2 3240 -1 65 -32z m-3395 -139 c2691 -3 3692 -2 3725 6 31 8
103 9 226 5 l181 -8 -7 -34 c-5 -19 -10 -36 -12 -38 -1 -2 -1817 -6 -4034 -10
l-4032 -8 -4 47 c-2 26 -1 50 2 52 2 3 65 2 140 -1 74 -3 1791 -8 3815 -11z
m-3667 -219 c2 -1 2 -33 0 -69 l-3 -67 -90 67 c-49 36 -94 70 -100 76 -7 7 23
7 90 3 55 -4 101 -9 103 -10z m7369 -66 c-4 -46 -7 -112 -7 -146 l0 -63 -3615
0 -3615 0 0 143 0 142 3622 4 3621 3 -6 -83z m282 73 l44 -7 -83 -60 c-46 -33
-89 -63 -96 -68 -9 -5 -13 11 -16 68 l-3 75 55 -1 c30 0 75 -4 99 -7z m-289
-432 l0 -90 -3610 0 -3610 0 0 85 0 85 3518 3 c1934 1 3559 3 3610 5 l92 2 0
-90z m-6402 -277 c-3 -79 3 -76 -123 -47 -110 26 -618 27 -735 2 -66 -14 -78
-15 -97 -2 -18 11 -23 24 -23 59 l0 44 113 4 c61 1 282 4 490 5 l378 2 -3 -67z
m1792 -1 c0 -75 -4 -86 -29 -73 -32 17 -177 43 -286 50 -142 10 -447 -3 -554
-24 -80 -16 -85 -15 -102 2 -10 10 -21 39 -24 66 l-7 47 501 0 501 0 0 -68z
m2996 23 c-10 -74 -21 -89 -64 -81 -287 53 -750 48 -888 -9 l-32 -13 -6 36
c-3 21 -6 54 -6 75 l0 37 501 0 502 0 -7 -45z m1662 38 l112 -6 0 -42 c0 -33
-5 -46 -23 -58 -20 -13 -30 -13 -92 1 -55 13 -133 16 -360 17 -249 0 -302 -3
-375 -19 -132 -29 -125 -32 -128 47 l-3 67 378 0 c208 0 429 -3 491 -7z
m-5777 -75 c3 -31 16 -72 28 -92 l23 -36 -312 0 c-294 0 -312 1 -304 18 4 9 9
52 12 95 l4 77 272 -2 271 -3 6 -57z m2999 7 c0 -31 7 -71 14 -90 l15 -35
-906 0 c-858 0 -905 1 -898 18 4 9 10 50 13 90 l5 72 878 0 879 0 0 -55z
m1793 -17 c3 -40 8 -83 12 -95 l7 -23 -310 0 -311 0 24 42 c13 23 27 66 31 95
l6 53 268 0 268 0 5 -72z m-5652 -84 c46 -9 98 -22 116 -29 28 -12 32 -17 24
-37 -4 -13 -23 -33 -40 -45 l-33 -22 -49 20 c-140 55 -433 65 -588 20 l-75
-22 -22 23 c-12 13 -25 33 -28 45 -6 18 -1 23 27 32 64 21 154 29 368 30 160
1 239 -3 300 -15z m1775 1 c103 -18 154 -33 154 -45 0 -21 -25 -61 -46 -75
-21 -14 -30 -13 -96 9 -40 14 -111 30 -157 37 -113 16 -323 7 -421 -19 -41
-11 -81 -22 -88 -24 -16 -4 -49 38 -54 66 -3 22 44 40 147 55 106 15 463 13
561 -4z m3049 -11 c80 -22 89 -36 52 -80 l-25 -29 -88 24 c-176 47 -472 38
-602 -20 -40 -17 -46 -17 -73 -4 -16 9 -36 29 -44 46 l-16 30 35 14 c83 35
184 44 441 41 207 -3 262 -6 320 -22z m1775 4 c65 -16 73 -33 33 -78 l-29 -32
-69 22 c-55 18 -102 24 -220 27 -164 6 -288 -11 -377 -49 l-48 -20 -35 26
c-23 18 -35 35 -35 51 0 21 8 27 56 41 102 29 147 33 409 29 180 -2 277 -7
315 -17z m-2666 -133 c11 -20 42 -56 69 -82 l50 -47 -7 -243 c-3 -133 -11
-390 -16 -570 -29 -961 -40 -1574 -40 -2242 l0 -742 -25 -37 c-17 -25 -25 -50
-25 -79 0 -32 -6 -48 -29 -70 l-29 -29 -6 625 c-3 345 -10 869 -15 1166 l-9
540 65 138 c36 76 67 156 70 177 5 33 2 40 -21 55 -24 16 -90 17 -988 10
-1065 -8 -1017 -4 -1004 -68 4 -18 18 -49 31 -69 14 -21 35 -62 46 -91 11 -28
33 -74 47 -102 l28 -50 -7 -515 c-4 -283 -10 -818 -14 -1189 -8 -648 -9 -672
-26 -640 -9 19 -26 43 -38 53 -15 14 -21 31 -21 60 0 28 -8 54 -25 78 l-25 37
0 738 c0 666 -9 1184 -40 2238 -6 193 -13 457 -17 587 l-6 237 34 28 c53 44
81 76 91 106 l10 27 937 0 936 0 19 -35z m-2976 -4 c7 -17 31 -48 53 -71 l41
-42 -7 -173 -8 -174 -253 -3 c-223 -3 -255 -5 -270 -20 -16 -15 -18 -63 -22
-501 -5 -484 -5 -484 17 -506 20 -20 29 -21 252 -21 l230 0 -6 -102 c-6 -110
-25 -572 -25 -624 l0 -31 -217 -7 c-119 -4 -225 -12 -234 -17 -10 -5 -20 -26
-23 -46 -3 -21 -8 -283 -11 -583 l-7 -545 -24 -3 c-13 -2 -29 -12 -34 -22 -12
-22 -3 -128 13 -147 7 -10 71 -13 258 -13 l249 0 0 -136 c0 -130 -1 -137 -26
-169 -14 -19 -28 -53 -31 -77 -4 -28 -15 -54 -33 -73 -35 -38 -50 -67 -50 -98
0 -13 -10 -32 -21 -43 -34 -30 -49 -77 -49 -154 l0 -70 -139 0 -138 0 -7 38
c-3 20 -6 56 -6 79 0 58 -15 91 -50 111 -19 11 -30 25 -30 40 0 34 -24 84 -54
111 -18 17 -26 35 -26 58 0 40 -12 65 -51 111 l-29 33 0 708 c0 651 -17 1531
-50 2511 -5 168 -10 361 -10 430 l1 125 40 30 c21 17 51 49 65 73 l26 42 342
0 341 0 13 -29z m4756 5 c3 -13 31 -47 61 -74 l55 -51 0 -148 c0 -81 -5 -276
-10 -433 -29 -822 -50 -1868 -50 -2500 l0 -688 -24 -29 c-34 -41 -56 -88 -56
-121 0 -18 -10 -37 -26 -53 -31 -28 -54 -77 -54 -114 0 -17 -8 -29 -23 -36
-38 -17 -52 -49 -57 -134 l-5 -80 -141 -3 -142 -3 -3 85 c-4 80 -6 87 -36 118
-23 23 -33 44 -33 65 0 21 -12 44 -39 74 -29 34 -39 55 -43 92 -4 34 -14 57
-32 76 -25 27 -26 30 -26 164 l0 137 193 1 c105 0 212 4 237 7 l45 7 9 63 c11
76 -1 112 -37 112 l-24 0 -6 188 c-4 103 -7 286 -8 407 0 121 -4 298 -8 394
-6 153 -9 175 -26 187 -14 11 -63 14 -210 14 l-191 0 -13 318 c-6 174 -14 345
-18 378 l-6 62 212 4 c185 3 213 5 228 21 16 15 18 42 21 205 1 103 -1 321 -6
485 -7 262 -10 299 -25 315 -16 15 -45 17 -246 20 l-228 3 -6 173 -7 172 45
47 c24 26 47 58 51 72 l6 25 348 0 348 0 6 -24z m-4261 -823 c-9 -892 -10
-1335 -4 -2363 l3 -705 -87 -3 -88 -3 7 773 c3 425 13 1068 21 1428 8 360 18
881 22 1157 l6 502 56 4 c31 2 60 4 64 5 4 1 4 -357 0 -795z m3001 -170 c7
-921 18 -1805 32 -2550 l7 -353 -85 0 -86 0 -7 893 c-4 490 -5 1357 -3 1924
l3 1033 45 5 c25 4 52 7 60 9 8 1 18 1 21 0 3 -2 9 -434 13 -961z m147 957
l25 0 13 -397 c6 -219 16 -510 21 -648 16 -409 39 -1310 45 -1760 3 -231 8
-564 10 -739 l6 -319 -81 6 c-45 3 -83 7 -84 9 -7 7 -55 3220 -56 3697 l0 164
38 -7 c20 -3 49 -6 63 -6z m1759 0 l27 0 6 -347 c4 -192 16 -690 27 -1108 19
-754 45 -2393 38 -2401 -3 -2 -40 -1 -85 3 l-80 6 -8 561 c-9 628 -22 3276
-16 3290 2 4 17 5 33 2 17 -3 43 -6 58 -6z m-6716 -672 c-5 -370 -8 -1236 -8
-1924 l1 -1252 -79 -7 c-44 -3 -82 -5 -84 -2 -15 14 26 2385 56 3242 6 154 10
355 10 448 l0 167 56 0 56 0 -8 -672z m182 664 c12 -8 35 -2166 34 -3254 l0
-598 -77 7 c-43 3 -79 7 -81 8 -4 3 -7 2587 -4 3258 l2 587 58 0 c31 0 62 -4
68 -8z m1804 -1 l25 -6 0 -170 c0 -93 6 -570 14 -1060 7 -489 12 -1278 10
-1753 l-4 -863 -80 3 -80 3 -6 850 c-3 468 -3 1335 0 1928 l4 1077 46 -1 c25
-1 57 -4 71 -8z m4587 -1469 c0 -812 5 -1677 11 -1922 5 -245 9 -446 8 -447
-1 -1 -34 -3 -75 -4 l-74 -2 1 819 c1 450 5 1315 9 1921 l6 1102 21 4 c12 2
37 5 56 6 l35 1 2 -1478z m-6734 1326 c-2 -79 -10 -377 -18 -663 -8 -286 -20
-686 -25 -890 -13 -488 -33 -2133 -26 -2144 6 -9 -39 -21 -77 -21 -20 0 -20 1
-14 648 8 844 30 1573 72 2422 8 157 16 353 20 435 11 307 15 335 38 345 12 5
25 9 28 9 3 1 4 -63 2 -141z m1797 25 c0 -65 -7 -381 -15 -703 -24 -939 -35
-1561 -42 -2319 l-6 -709 -30 -6 c-16 -3 -48 -6 -71 -6 l-41 0 2 297 c4 463
22 1371 33 1648 6 138 21 500 35 805 13 305 28 675 31 822 l7 267 36 9 c64 17
61 22 61 -105z m3471 102 l26 -6 7 -262 c4 -144 13 -404 21 -577 51 -1102 69
-1653 81 -2527 l7 -473 -55 0 -56 0 -6 448 c-14 1052 -27 1554 -66 2627 -5
154 -13 394 -17 534 -6 246 -6 253 13 248 10 -3 31 -9 45 -12z m1777 1 c1 -2
7 -111 12 -242 6 -132 19 -419 30 -639 51 -1040 59 -1316 67 -2218 5 -664 5
-747 -9 -747 -8 0 -35 3 -60 6 l-45 6 -7 587 c-3 322 -11 757 -16 966 -5 209
-14 589 -20 845 -10 465 -25 1038 -35 1309 l-5 144 42 -7 c23 -4 44 -8 46 -10z
m-6575 -7 l42 -10 1 -229 c2 -248 18 -898 35 -1370 6 -162 13 -730 15 -1262 4
-937 3 -968 -15 -968 -10 0 -39 3 -65 6 l-46 7 0 816 c0 830 -13 2212 -26
2734 -5 220 -4 287 5 287 7 0 31 -5 54 -11z m1824 -9 c2 0 3 -101 3 -225 0
-223 9 -581 32 -1200 6 -176 14 -792 17 -1368 l6 -1049 -29 6 c-16 3 -37 6
-47 6 -18 0 -19 30 -19 1048 0 954 -7 1539 -26 2469 l-7 332 34 -9 c19 -6 35
-10 36 -10z m2478 -1902 c0 -1258 -4 -1922 -10 -1924 -6 -1 -34 -4 -64 -7
l-53 -4 5 1011 c4 691 12 1219 26 1666 11 360 21 768 21 906 l0 251 33 11 c17
5 34 10 37 11 3 1 5 -864 5 -1921z m1791 1570 c-3 -194 -9 -1058 -12 -1919
l-6 -1567 -56 -6 c-30 -4 -56 -5 -57 -4 -7 7 15 2291 24 2558 22 643 33 1089
29 1174 l-3 89 35 13 c19 7 39 13 44 13 4 1 5 -158 2 -351z m-5016 -235 c0
-49 -3 -98 -6 -111 l-6 -22 -212 2 -211 3 -5 103 c-3 57 -3 106 -1 108 2 2
103 4 223 4 l218 0 0 -87z m4300 -16 l0 -104 -127 -6 c-71 -4 -158 -7 -194 -7
l-66 0 -7 46 c-3 26 -6 75 -6 110 l0 64 200 0 200 0 0 -103z m-4597 -177 l50
0 -6 -291 c-3 -160 -8 -293 -10 -295 -11 -11 -174 -16 -181 -6 -3 5 -3 144 1
307 l6 297 45 -6 c25 -3 67 -6 95 -6z m284 -87 c-4 -49 -9 -167 -12 -263 -3
-96 -8 -190 -11 -207 l-5 -33 -81 0 -81 0 6 218 c4 119 7 252 7 295 l0 77 91
0 92 0 -6 -87z m4066 -65 c4 -83 7 -216 7 -295 l0 -143 -60 0 c-59 0 -59 0
-64 33 -3 17 -8 124 -11 237 -3 113 -8 231 -12 263 l-6 57 70 0 70 0 6 -152z
m247 -137 c0 -254 -2 -290 -16 -295 -9 -3 -48 -6 -88 -6 l-73 0 -6 212 c-4
116 -7 249 -7 295 l0 83 95 0 95 0 0 -289z m-1445 -411 l-16 -30 -817 0 c-449
0 -847 -3 -884 -6 l-66 -7 -16 31 c-9 17 -16 33 -16 37 0 3 412 5 915 5 l916
0 -16 -30z m-61 -147 c-9 -21 -18 -44 -21 -50 -4 -10 -176 -13 -812 -13 l-806
0 -27 50 -28 50 855 0 855 0 -16 -37z m-29 -525 c4 -222 10 -776 14 -1233 5
-659 4 -839 -6 -874 -8 -27 -10 -65 -7 -97 l7 -54 -30 0 c-23 0 -32 5 -37 22
-3 13 -6 120 -6 238 0 521 -31 2217 -41 2248 -7 22 -19 34 -37 39 -47 11
-1307 -4 -1331 -17 -12 -6 -27 -23 -33 -38 -10 -24 -24 -1214 -27 -2229 l-1
-263 -44 0 -44 0 -4 93 c-5 98 6 1404 18 2124 l7 433 331 3 c182 1 541 3 797
5 l467 2 7 -402z m-1175 -28 l0 -210 -74 0 c-40 0 -94 -3 -120 -6 l-46 -7 0
217 0 216 120 0 120 0 0 -210z m340 0 l0 -210 -140 0 -140 0 0 210 0 210 140
0 140 0 0 -210z m340 0 l0 -210 -145 0 -145 0 0 210 0 210 145 0 145 0 0 -210z
m300 0 l0 -210 -120 0 -119 0 -3 210 -3 210 123 0 122 0 0 -210z m-2646 -147
c-1 -7 -2 -65 -2 -128 l-2 -115 -190 0 -190 0 0 125 0 125 173 3 c221 4 212 4
211 -10z m4392 -5 c-3 -13 -6 -71 -6 -130 l0 -108 -165 0 -165 0 0 130 0 130
171 0 171 0 -6 -22z m-1746 -148 c0 -20 -7 -20 -503 -20 -277 0 -552 -3 -610
-7 l-107 -6 0 26 0 27 610 0 c603 0 610 0 610 -20z m-650 -1015 l0 -915 -232
0 c-128 -1 -259 -3 -290 -7 l-58 -5 0 274 c0 151 3 566 7 921 l6 647 284 0
283 0 0 -915z m654 663 c3 -139 8 -487 11 -773 3 -286 8 -584 12 -662 l6 -143
-302 0 -301 0 0 428 c0 235 -3 646 -7 915 l-6 487 290 0 291 0 6 -252z m-2837
-30 c-4 -128 -7 -304 -7 -390 l0 -158 -101 0 -102 0 6 68 c4 37 7 212 7 390
l0 322 102 0 101 0 -6 -232z m177 -145 c-3 -208 -7 -384 -10 -390 -2 -9 -23
-13 -59 -13 l-55 0 0 390 0 390 64 0 65 0 -5 -377z m4150 145 c3 -128 7 -302
9 -386 l2 -152 -36 0 -37 0 -6 173 c-3 94 -7 268 -10 385 l-4 212 38 0 38 0 6
-232z m247 110 c0 -68 4 -235 8 -373 4 -137 6 -256 3 -262 -3 -9 -32 -13 -98
-13 l-94 0 0 128 c0 71 -3 244 -7 385 l-6 257 96 0 97 0 1 -122z m-4404 -744
c3 -8 2 -19 -3 -23 -5 -5 -111 -11 -236 -15 l-228 -6 0 30 0 30 230 0 c200 0
231 -2 237 -16z m4503 -9 l0 -25 -205 0 -205 0 0 25 0 25 205 0 205 0 0 -25z
m-5495 -425 c143 -13 185 -24 185 -51 0 -17 -5 -18 -47 -12 -54 8 -646 11
-768 3 -88 -5 -98 3 -45 35 25 14 61 21 140 25 173 11 407 10 535 0z m1844
-10 c75 -10 101 -22 101 -46 0 -11 -15 -12 -77 -6 -101 9 -601 9 -720 0 -78
-7 -93 -5 -93 7 0 31 47 47 162 55 139 10 527 4 627 -10z m2995 10 c132 -10
176 -24 176 -56 0 -13 -7 -15 -37 -10 -77 12 -572 18 -703 8 -137 -10 -164 -6
-141 22 32 38 414 57 705 36z m1754 0 c111 -9 171 -24 185 -48 3 -4 -178 -7
-401 -7 -224 0 -426 -3 -450 -8 -39 -7 -43 -5 -40 10 2 10 14 23 28 30 59 28
444 41 678 23z m-6533 -150 c148 -14 215 -40 215 -87 0 -4 -159 -8 -352 -8
-194 0 -438 -2 -543 -4 -165 -3 -190 -2 -193 12 -2 10 19 28 57 51 56 32 68
36 153 39 224 8 562 6 663 -3z m1750 0 c129 -11 202 -36 216 -75 6 -20 2 -20
-522 -21 -400 -1 -529 2 -529 11 0 14 36 48 69 65 12 6 62 15 110 20 128 11
519 11 656 0z m3080 0 c120 -12 185 -35 202 -73 l10 -22 -528 0 c-552 -1 -553
0 -512 41 29 29 83 46 173 54 130 11 532 11 655 0z m1927 -32 c35 -19 64 -42
66 -51 3 -14 -47 -15 -540 -11 -416 4 -542 8 -540 17 20 71 139 87 619 82
l332 -3 63 -34z m-4834 -194 l112 -6 0 -47 0 -48 -417 -5 c-230 -3 -498 -3
-595 -1 l-178 6 0 48 0 49 58 1 c31 1 149 5 262 9 207 7 552 4 758 -6z m3060
0 l122 -6 0 -49 0 -49 -590 0 -590 0 0 50 c0 45 2 50 23 51 257 15 744 16
1035 3z m1675 0 l228 -7 -3 -46 -3 -46 -605 0 -605 1 0 49 0 50 180 6 c185 6
407 4 808 -7z m-6375 -56 l3 -58 -611 0 -610 0 0 50 c0 43 3 50 23 55 34 8
238 11 737 10 l455 0 3 -57z m6708 -223 c3 -25 4 -48 1 -51 -2 -3 -1237 -7
-2743 -10 -1507 -2 -3312 -6 -4012 -9 l-1272 -4 0 54 0 55 1808 3 c994 1 2798
3 4009 5 l2202 2 7 -45z m214 -228 l0 -44 -117 -6 c-110 -7 -925 -9 -6281 -22
l-2063 -5 3 53 3 52 1810 5 c996 3 2898 6 4228 8 l2417 2 0 -43z"/>
<path d="M4842 5863 c-53 -10 -53 -14 -50 -498 3 -429 4 -447 22 -461 16 -11
75 -14 307 -14 254 0 288 2 300 17 19 22 23 230 14 622 -7 278 -9 305 -26 322
-18 18 -37 19 -281 18 -145 -1 -273 -4 -286 -6z m498 -187 l0 -104 -227 -4
c-126 -2 -229 -4 -230 -3 -1 0 -5 48 -9 108 l-7 107 237 0 236 0 0 -104z
m-258 -431 l3 -265 -102 0 -103 0 0 259 0 260 23 4 c12 2 57 5 99 6 l77 1 3
-265z m260 0 l3 -265 -102 0 -103 0 0 265 0 265 100 0 99 0 3 -265z"/>
<path d="M4960 2781 c-5 -11 -10 -82 -10 -159 0 -128 2 -140 21 -158 20 -18
21 -18 35 1 21 29 20 282 -2 313 -19 27 -30 28 -44 3z"/>
<path d="M5240 2774 c-6 -14 -10 -79 -10 -144 0 -131 9 -170 39 -170 33 0 41
32 41 170 0 72 -5 140 -10 151 -15 28 -49 24 -60 -7z"/>
</g>
</svg>
