<?xml version="1.0" standalone="no"?>
<!DOCTYPE svg PUBLIC "-//W3C//DTD SVG 20010904//EN"
 "http://www.w3.org/TR/2001/REC-SVG-20010904/DTD/svg10.dtd">
<svg version="1.0" xmlns="http://www.w3.org/2000/svg"
 width="456.185197pt" height="767.941346pt" viewBox="0 0 456.185197 767.941346"
 preserveAspectRatio="xMidYMid meet">
<metadata>
Created by potrace 1.16, written by Peter Selinger 2001-2019
</metadata>
<g transform="translate(-284.016439,896.020333) scale(0.100000,-0.100000)"
fill="#000000" stroke="none">
<path d="M4459 8937 c-44 -29 -52 -46 -158 -327 -49 -129 -188 -494 -309 -810
-121 -316 -304 -795 -407 -1065 -103 -269 -213 -557 -245 -640 -61 -158 -191
-497 -384 -1004 -64 -167 -116 -316 -116 -330 0 -40 41 -102 80 -122 33 -18
76 -19 876 -19 l842 0 -90 -272 c-49 -150 -260 -793 -469 -1428 -209 -635
-406 -1232 -437 -1326 l-56 -171 18 -47 c23 -59 64 -88 131 -94 44 -4 55 -1
84 23 18 16 58 62 90 104 31 42 255 335 496 651 242 316 521 681 620 812 99
130 315 413 480 628 281 367 435 569 1002 1314 661 866 827 1085 859 1131 26
39 34 60 34 95 0 50 -26 101 -62 122 -18 10 -190 14 -836 18 l-813 5 165 250
c152 231 842 1275 1339 2025 l209 315 -4 53 c-4 45 -10 59 -42 90 l-36 37
-1414 3 -1413 2 -34 -23z m2524 -285 c-10 -15 -181 -273 -380 -572 -765 -1153
-1264 -1907 -1290 -1950 -46 -78 -29 -166 40 -209 34 -21 40 -21 831 -21 l797
0 -97 -127 c-54 -70 -206 -269 -338 -443 -217 -285 -696 -911 -1544 -2020
-166 -217 -429 -562 -585 -766 -155 -204 -283 -370 -284 -369 -2 0 55 177 127
391 200 605 456 1381 594 1804 139 429 139 431 76 494 l-30 31 -855 3 c-470 1
-855 5 -855 7 0 5 155 413 432 1135 77 201 164 428 193 505 131 342 321 841
365 955 63 164 182 475 318 835 61 160 115 302 121 318 l11 27 1186 0 1186 0
-19 -28z"/>
</g>
</svg>
