<?xml version="1.0" standalone="no"?>
<!DOCTYPE svg PUBLIC "-//W3C//DTD SVG 20010904//EN"
 "http://www.w3.org/TR/2001/REC-SVG-20010904/DTD/svg10.dtd">
<svg version="1.0" xmlns="http://www.w3.org/2000/svg"
 width="819.585645pt" height="614.461903pt" viewBox="0 0 819.585645 614.461903"
 preserveAspectRatio="xMidYMid meet">
<metadata>
Created by potrace 1.16, written by Peter Selinger 2001-2019
</metadata>
<g transform="translate(-102.167626,819.564963) scale(0.100000,-0.100000)"
fill="#000000" stroke="none">
<path d="M5035 8194 c-284 -20 -501 -77 -740 -195 -276 -137 -510 -336 -682
-581 l-54 -77 -72 25 c-40 14 -123 34 -185 44 -471 82 -967 -122 -1258 -516
-201 -271 -289 -624 -239 -958 8 -55 14 -100 13 -101 -2 -1 -46 -30 -98 -65
-132 -89 -335 -293 -422 -425 -199 -301 -291 -623 -275 -964 15 -310 102 -574
275 -832 203 -302 491 -528 819 -642 188 -66 444 -105 603 -92 85 7 217 24
242 31 11 3 33 -18 75 -73 260 -349 634 -589 1069 -689 98 -22 152 -28 299
-32 198 -5 303 5 456 43 268 68 486 175 687 339 l82 66 57 -47 c194 -158 412
-247 668 -273 444 -46 901 178 1157 566 l40 61 142 11 c232 20 398 64 591 157
682 330 1049 1066 899 1803 -41 205 -152 451 -280 623 -139 186 -340 361 -522
453 l-52 26 6 53 c14 121 -31 339 -101 484 -59 125 -113 202 -208 300 -167
172 -375 280 -606 313 -159 24 -409 -2 -534 -55 -14 -6 -20 0 -29 26 -25 71
-128 268 -186 354 -262 390 -633 659 -1067 775 -169 46 -422 74 -570 64z m300
-275 c336 -43 665 -207 910 -454 170 -170 310 -396 389 -623 44 -128 50 -139
89 -162 48 -30 95 -25 189 20 131 62 191 75 358 75 137 -1 150 -2 239 -33 134
-47 222 -101 322 -201 100 -100 155 -187 201 -321 33 -94 33 -97 33 -280 1
-226 -2 -220 131 -284 325 -156 577 -441 688 -776 72 -217 90 -481 47 -687
-89 -430 -358 -781 -748 -978 -186 -93 -367 -135 -583 -135 -184 0 -193 -4
-262 -119 -151 -253 -342 -407 -605 -488 -81 -25 -102 -27 -263 -27 -153 -1
-185 2 -253 22 -166 48 -297 125 -437 258 -129 121 -161 122 -288 3 -218 -203
-464 -333 -752 -395 -120 -26 -439 -27 -559 -1 -292 63 -561 206 -769 410 -84
82 -182 204 -235 293 -38 64 -80 94 -129 94 -14 0 -60 -10 -104 -22 -69 -19
-106 -21 -289 -22 -190 -1 -219 1 -305 23 -541 136 -943 563 -1045 1111 -18
99 -21 325 -5 426 67 421 312 771 688 983 121 67 137 102 103 222 -31 114 -44
233 -36 338 46 649 667 1104 1291 946 51 -13 123 -37 162 -54 129 -57 181 -39
254 86 64 110 189 265 282 348 362 326 808 465 1291 404z"/>
</g>
</svg>
