<?xml version="1.0" standalone="no"?>
<!DOCTYPE svg PUBLIC "-//W3C//DTD SVG 20010904//EN"
 "http://www.w3.org/TR/2001/REC-SVG-20010904/DTD/svg10.dtd">
<svg version="1.0" xmlns="http://www.w3.org/2000/svg"
 width="699.488388pt" height="743.541684pt" viewBox="0 0 699.488388 743.541684"
 preserveAspectRatio="xMidYMid meet">
<metadata>
Created by potrace 1.16, written by Peter Selinger 2001-2019
</metadata>
<g transform="translate(-150.011612,871.967463) scale(0.100000,-0.100000)"
fill="#000000" stroke="none">
<path d="M3960 8713 c-41 -1 -169 -10 -285 -19 -817 -61 -1498 -238 -1884
-488 -85 -55 -197 -164 -234 -228 -52 -91 -57 -131 -57 -508 0 -375 4 -409 56
-498 39 -66 165 -188 259 -250 93 -61 282 -155 407 -202 l87 -33 3 -231 3
-231 36 -76 c50 -104 160 -219 296 -309 l102 -68 -62 -22 c-97 -34 -294 -133
-382 -190 -102 -67 -212 -178 -252 -255 -18 -34 -37 -90 -42 -125 -6 -36 -11
-222 -12 -415 l-1 -350 -52 -45 c-107 -93 -167 -187 -186 -293 -7 -36 -10
-189 -8 -410 3 -313 5 -358 22 -402 65 -174 251 -334 557 -480 l146 -69 6
-155 c4 -129 9 -166 27 -211 114 -286 539 -533 1205 -699 906 -226 2186 -222
3081 9 686 177 1111 444 1178 740 13 54 16 134 16 378 0 337 -6 395 -51 485
-39 77 -161 203 -264 273 l-83 57 -4 241 -4 241 40 84 41 84 5 214 5 215 131
52 c330 132 562 304 650 481 l39 79 0 401 0 401 -39 78 c-86 176 -314 336
-656 461 -58 21 -110 43 -117 47 -7 6 -12 64 -15 176 l-3 167 -38 71 c-65 122
-205 246 -387 342 l-100 53 0 268 c0 291 -7 345 -57 431 -147 249 -640 478
-1313 609 -540 104 -1181 148 -1810 124z m670 -203 c1019 -39 1882 -254 2192
-548 154 -146 116 -283 -122 -434 -350 -223 -1018 -387 -1830 -450 -212 -16
-895 -16 -1100 0 -350 28 -673 73 -923 127 -658 144 -1087 361 -1122 566 -20
118 145 273 420 393 459 201 1167 328 1945 349 235 7 290 6 540 -3z m-2840
-1144 c72 -53 243 -142 377 -196 l98 -39 3 -200 2 -200 -57 25 c-270 120 -441
245 -479 353 -13 34 -20 301 -9 301 3 0 32 -20 65 -44z m5125 -222 c-8 -58
-55 -125 -128 -183 -59 -46 -126 -91 -137 -91 -3 0 -5 83 -5 185 l0 185 78 45
c44 25 104 63 135 85 l57 40 3 -112 c2 -62 0 -132 -3 -154z m-445 -171 l0
-198 -108 -42 c-59 -24 -115 -45 -125 -49 -16 -6 -17 6 -15 196 l3 202 120 43
c66 24 121 44 123 44 1 1 2 -88 2 -196z m-3850 52 c11 -7 15 -361 4 -388 -4
-12 -19 -10 -93 12 -49 14 -89 29 -90 34 0 4 -1 94 -1 201 l0 194 85 -23 c46
-13 89 -26 95 -30z m4569 -16 c125 -71 202 -144 241 -231 26 -57 25 -102 -5
-166 -115 -248 -734 -497 -1490 -601 -273 -38 -476 -52 -815 -58 -685 -11
-1279 59 -1785 212 -119 36 -429 154 -422 161 2 2 69 -7 148 -20 940 -159
2064 -130 2895 74 505 124 869 295 1051 495 33 35 70 86 83 114 14 28 29 50
34 51 5 0 34 -14 65 -31z m-1141 -181 l-3 -202 -70 -18 c-145 -37 -466 -98
-620 -117 -332 -42 -507 -53 -909 -58 -603 -8 -1040 26 -1501 115 l-140 27 -3
206 -2 206 109 -23 c241 -49 624 -96 951 -115 253 -15 936 -6 1160 15 333 32
690 87 900 140 52 13 103 24 113 25 16 1 17 -13 15 -201z m-3446 -574 c35 -25
104 -68 155 -96 l93 -50 0 -164 c0 -90 -4 -164 -9 -164 -20 0 -169 106 -216
155 -78 80 -89 110 -93 248 -2 64 -1 117 2 117 3 0 34 -21 68 -46z m4829 -219
c-32 -73 -158 -192 -258 -244 l-23 -12 0 168 0 168 65 34 c36 18 102 59 147
90 l83 58 3 -109 c2 -90 -1 -116 -17 -153z m503 103 c211 -106 347 -240 346
-342 -1 -122 -173 -274 -450 -396 -346 -153 -848 -269 -1405 -324 -628 -63
-1449 -37 -1985 64 -99 18 -101 19 -35 14 486 -34 890 -31 1315 12 681 67
1274 241 1631 479 121 81 236 201 279 291 32 66 54 198 43 256 -11 57 -1 60
93 22 48 -20 124 -54 168 -76z m-4649 -190 c906 -275 2203 -300 3195 -62 80
19 153 37 163 40 16 5 17 -8 17 -174 l0 -179 -132 -36 c-301 -83 -655 -140
-1043 -168 -208 -15 -765 -15 -975 0 -532 38 -1034 137 -1375 272 l-110 44 -3
177 -2 177 67 -25 c38 -15 127 -44 198 -66z m3695 -77 c0 -123 -3 -171 -12
-178 -15 -11 -117 -53 -129 -53 -5 0 -9 78 -9 174 l0 174 68 25 c37 13 70 25
75 26 4 0 7 -75 7 -168z m-3888 -501 c29 -22 90 -61 136 -86 l82 -46 0 -184
c0 -101 -3 -184 -6 -184 -16 0 -160 109 -194 147 -65 74 -74 102 -78 256 -2
75 -2 137 2 137 3 0 29 -18 58 -40z m5164 -277 c-49 -95 -181 -201 -371 -295
-90 -45 -266 -118 -285 -118 -6 0 -10 72 -10 198 l0 198 88 28 c197 65 428
176 547 266 l50 37 3 -133 c2 -125 1 -137 -22 -181z m-5446 173 c0 -190 38
-285 164 -412 339 -340 1138 -585 2131 -655 94 -6 171 -12 173 -14 1 -1 -102
-5 -230 -9 -229 -7 -624 4 -863 25 -653 54 -1238 190 -1598 370 -157 79 -310
205 -342 284 -19 44 -19 96 0 140 19 46 106 138 175 185 92 62 335 178 378
180 9 0 12 -25 12 -94z m855 -166 c422 -144 965 -237 1570 -271 267 -15 876
-6 1120 16 188 17 544 65 657 88 l66 14 7 -146 c9 -198 6 -260 -14 -265 -9 -3
-110 -21 -226 -40 -418 -69 -684 -89 -1185 -89 -201 0 -437 5 -525 12 -627 47
-1129 148 -1537 309 l-118 46 0 194 c0 181 1 194 18 189 9 -3 85 -29 167 -57z
m3755 -279 l0 -199 -80 -20 -80 -20 0 202 0 203 63 15 c107 27 97 46 97 -181z
m-5116 -340 c33 -26 109 -71 169 -101 l107 -54 0 -268 0 -269 -32 17 c-117 60
-242 165 -288 240 l-35 58 -4 219 c-2 174 -1 218 9 212 7 -4 40 -29 74 -54z
m5146 -226 c0 -173 -6 -191 -87 -276 -158 -166 -535 -336 -960 -433 l-63 -14
0 283 0 283 93 22 c146 34 373 99 487 140 58 21 175 55 260 74 85 20 178 43
205 50 28 8 53 15 58 15 4 1 7 -64 7 -144z m-4550 -319 c3 -177 1 -276 -5
-276 -5 0 -40 12 -77 26 l-68 26 0 273 0 273 73 -23 72 -23 5 -276z m408 169
c411 -89 729 -127 1220 -147 470 -18 986 7 1392 68 91 13 184 27 208 31 l42 6
-2 -284 -3 -284 -70 -13 c-126 -23 -426 -61 -625 -79 -246 -22 -961 -25 -1200
-5 -391 33 -759 90 -1035 160 l-150 37 -3 282 -2 282 32 -10 c18 -5 106 -25
196 -44z m-1198 -225 c84 -106 205 -197 391 -294 417 -218 1073 -368 1819
-416 222 -15 803 -15 1025 0 417 27 893 98 1185 176 241 65 513 166 649 240
85 47 60 18 -43 -50 -202 -134 -424 -220 -825 -321 -631 -158 -1502 -217
-2287 -155 -736 59 -1403 226 -1773 445 -105 62 -222 170 -252 232 -35 73 -24
155 30 216 15 18 16 18 26 1 5 -9 30 -43 55 -74z m-53 -513 c43 -29 95 -63
116 -75 l39 -23 -4 -173 c-1 -96 -6 -178 -10 -182 -8 -8 -97 58 -145 108 -65
68 -78 109 -81 261 -2 75 -1 137 2 137 3 0 40 -24 83 -53z m5311 -89 c-3 -115
-7 -150 -22 -177 -30 -56 -116 -141 -196 -193 l-75 -50 -3 183 c-1 101 0 189
2 195 3 7 37 29 77 50 39 21 102 60 138 86 36 26 69 48 74 48 5 0 7 -64 5
-142z m-4745 -172 c928 -314 2289 -381 3434 -170 118 21 389 82 446 100 16 5
17 -9 17 -199 l0 -205 -112 -31 c-314 -85 -671 -143 -1133 -183 -239 -20
-1002 -17 -1250 5 -246 22 -464 50 -655 82 -298 52 -688 162 -895 253 l-90 39
-3 201 -2 201 52 -23 c29 -13 115 -44 191 -70z m4275 -137 l-3 -202 -95 -38
c-52 -21 -98 -39 -102 -39 -5 0 -8 91 -8 203 l0 203 56 18 c31 10 75 26 97 36
23 10 45 19 50 19 4 1 6 -90 5 -200z m780 76 c72 -77 100 -148 83 -210 -77
-281 -706 -553 -1561 -674 -319 -45 -561 -61 -947 -61 -403 0 -798 29 -1093
80 l-105 18 100 -7 c55 -3 309 -6 565 -6 511 1 684 11 1050 65 1002 147 1685
460 1797 824 20 66 24 65 111 -29z m90 -692 c-5 -136 -20 -175 -93 -248 -54
-54 -162 -135 -181 -135 -11 0 -14 30 -14 160 l0 160 43 21 c57 29 201 124
217 144 27 33 32 15 28 -102z m-5008 66 c18 -7 56 -27 84 -46 28 -18 90 -54
139 -79 l87 -45 0 -169 0 -170 -77 46 c-90 53 -187 129 -224 176 -46 59 -56
90 -64 196 -8 113 -8 112 55 91z m4550 -383 c0 -157 -2 -174 -17 -179 -10 -2
-42 -14 -70 -26 l-53 -21 0 174 0 173 63 25 c34 15 65 27 70 27 4 1 7 -77 7
-173z m-3905 91 c718 -234 1712 -313 2645 -211 283 31 690 110 928 180 l22 6
0 -176 0 -176 -27 -11 c-118 -45 -509 -133 -753 -168 -319 -47 -471 -55 -975
-56 -492 0 -600 5 -915 46 -198 25 -383 60 -587 110 -164 40 -439 129 -480
155 -22 14 -23 19 -23 185 0 133 3 170 13 166 6 -2 75 -25 152 -50z"/>
<path d="M4000 8384 c-323 -16 -685 -60 -969 -119 -374 -77 -651 -178 -864
-315 -94 -60 -117 -98 -93 -154 31 -74 79 -73 206 4 315 194 816 319 1530 382
219 19 859 16 1090 -5 695 -65 1208 -203 1510 -407 60 -40 102 -40 142 0 26
27 30 36 25 67 -8 49 -36 76 -147 141 -334 197 -837 325 -1525 388 -162 14
-740 26 -905 18z"/>
</g>
</svg>
