<?xml version="1.0" standalone="no"?>
<!DOCTYPE svg PUBLIC "-//W3C//DTD SVG 20010904//EN"
 "http://www.w3.org/TR/2001/REC-SVG-20010904/DTD/svg10.dtd">
<svg version="1.0" xmlns="http://www.w3.org/2000/svg"
 width="829.691252pt" height="828.065719pt" viewBox="0 0 829.691252 828.065719"
 preserveAspectRatio="xMidYMid meet">
<metadata>
Created by potrace 1.16, written by Peter Selinger 2001-2019
</metadata>
<g transform="translate(-97.330761,925.878371) scale(0.100000,-0.100000)"
fill="#000000" stroke="none">
<path d="M2664 9250 c-12 -4 -31 -21 -43 -36 -20 -26 -21 -36 -21 -323 0 -163
-3 -306 -6 -318 l-6 -23 -418 0 -418 0 -31 -31 -31 -30 -2 -397 -3 -397 -326
-5 c-363 -6 -356 -4 -379 -75 -14 -42 6 -96 46 -122 26 -16 55 -18 344 -18
l315 0 3 -147 3 -148 -43 -2 c-24 0 -144 0 -268 2 -124 1 -251 -1 -283 -5 -98
-12 -144 -74 -113 -148 26 -63 18 -62 375 -67 l326 -5 3 -137 3 -138 -323 0
c-359 0 -356 0 -384 -66 -18 -44 -9 -86 28 -121 l29 -28 325 -3 324 -3 0 -154
0 -154 -324 -3 -325 -3 -30 -29 c-16 -15 -32 -39 -36 -53 -8 -35 12 -89 42
-113 25 -19 40 -20 349 -20 l324 0 0 -120 0 -120 -309 0 c-170 0 -321 -4 -334
-9 -60 -23 -87 -87 -63 -146 27 -63 39 -65 391 -65 l315 0 0 -120 0 -120 -317
0 c-298 0 -320 -1 -350 -20 -46 -27 -62 -84 -38 -134 31 -65 37 -66 390 -66
l316 0 -3 -117 -3 -118 -326 -5 c-358 -5 -349 -4 -376 -69 -18 -43 -9 -81 28
-117 l30 -29 325 -3 324 -3 0 -115 0 -114 -297 0 c-167 0 -314 -4 -334 -10
-67 -19 -101 -82 -76 -142 27 -64 19 -63 376 -68 l326 -5 3 -197 2 -198 -314
0 c-176 0 -326 -4 -340 -10 -53 -20 -76 -98 -47 -154 29 -53 52 -56 390 -56
l311 0 0 -115 0 -115 -307 0 c-347 0 -362 -3 -395 -70 -22 -45 -10 -99 29
-130 25 -19 38 -20 349 -20 l324 0 0 -120 0 -120 -315 0 c-352 0 -364 -2 -391
-65 -22 -54 -6 -102 46 -138 22 -15 59 -17 342 -17 l318 0 0 -407 c0 -371 2
-410 18 -429 34 -43 44 -44 476 -44 l416 0 0 -321 0 -321 34 -34 c27 -27 42
-34 74 -34 50 0 88 29 102 78 6 22 10 161 10 335 l0 297 110 0 110 0 0 -321 0
-321 34 -34 c27 -27 42 -34 74 -34 48 0 88 29 100 73 5 18 7 134 4 258 -2 125
-1 261 3 303 l7 76 109 0 109 0 0 -321 0 -321 34 -34 c46 -46 99 -47 145 -5
l31 29 0 326 0 327 113 -3 112 -3 5 -320 c3 -176 9 -328 14 -338 23 -49 118
-62 163 -23 l28 24 5 329 5 328 113 3 112 3 0 -322 0 -321 34 -34 c45 -45 104
-48 145 -6 39 39 44 83 40 402 l-4 275 113 3 112 3 0 -322 0 -321 34 -34 c43
-43 95 -47 141 -10 l30 24 5 329 5 328 113 3 112 3 0 -323 c0 -291 2 -325 18
-344 34 -43 87 -55 137 -32 53 24 55 40 55 383 l0 316 113 -3 112 -3 2 -315
c2 -225 6 -322 15 -338 26 -49 112 -68 154 -34 42 34 44 48 44 377 l0 316 113
-3 112 -3 5 -320 c3 -176 9 -327 13 -336 25 -50 118 -64 164 -25 l28 24 5 329
5 328 110 0 110 0 5 -320 c3 -176 9 -328 14 -338 12 -25 59 -47 101 -47 27 0
44 8 66 29 l29 29 0 327 0 326 113 -3 112 -3 5 -330 c3 -181 7 -331 8 -333 1
-1 17 -11 35 -22 37 -23 74 -25 112 -8 53 24 55 40 55 383 l0 315 109 0 c109
0 109 0 114 -26 2 -14 2 -145 -1 -292 -5 -305 0 -341 51 -372 37 -23 74 -25
112 -8 53 24 55 40 55 383 l0 315 421 0 421 0 29 29 29 29 0 411 0 411 315 0
c263 0 321 3 345 15 33 17 60 61 60 97 0 33 -36 87 -66 98 -14 6 -160 10 -340
10 l-314 0 0 120 0 120 323 0 c354 0 351 -1 383 62 31 59 -9 138 -77 152 -18
3 -166 6 -330 6 l-299 0 0 115 0 115 299 0 c164 0 312 3 330 6 68 14 108 93
77 152 -32 63 -29 62 -383 62 l-323 0 2 198 3 197 327 5 328 5 27 28 c35 35
39 102 8 137 -44 49 -67 52 -389 49 l-301 -3 -3 116 -3 117 323 3 c291 3 326
5 349 21 59 40 63 125 8 171 l-31 26 -324 0 -324 0 0 120 0 120 310 0 c343 0
366 3 394 59 20 38 20 64 1 101 -30 58 -43 60 -390 60 l-315 0 0 120 0 120
314 0 c180 0 326 4 340 10 30 11 66 65 66 98 0 13 -7 37 -16 53 -28 56 -51 59
-394 59 l-310 0 0 120 0 120 324 0 324 0 31 26 c38 32 48 78 27 128 -26 63
-43 66 -396 66 l-310 0 0 154 0 155 323 3 c348 3 348 3 381 59 27 45 21 86
-18 125 l-34 34 -326 0 -327 0 3 138 3 137 327 5 328 5 27 28 c22 22 28 37 28
72 0 54 -32 92 -90 105 -21 5 -169 9 -329 8 l-291 0 -3 146 -3 146 113 1 c104
1 481 7 520 8 9 1 30 13 47 27 38 31 49 80 28 121 -31 59 -23 58 -376 63
l-326 5 -3 397 -2 397 -31 30 -31 31 -419 0 -419 0 0 313 c0 292 -1 314 -20
344 -42 70 -154 63 -185 -11 -12 -28 -15 -95 -15 -341 l0 -305 -110 0 -110 0
0 313 c0 288 -2 314 -19 343 -26 43 -71 60 -120 45 -75 -22 -76 -25 -79 -383
l-3 -318 -110 0 -109 0 0 313 c0 288 -2 314 -19 343 -26 43 -71 60 -120 45
-75 -22 -76 -25 -79 -383 l-3 -318 -110 0 -109 0 0 318 c0 349 1 346 -62 378
-61 32 -147 -14 -149 -80 0 -17 0 -124 1 -239 1 -114 -2 -245 -6 -292 l-7 -85
-108 0 -109 0 0 313 c0 341 -1 347 -58 380 -41 24 -90 17 -126 -20 l-26 -26
-1 -308 c-1 -170 -2 -315 -3 -321 -1 -9 -33 -14 -113 -16 l-113 -3 0 318 c0
350 1 347 -62 379 -39 20 -87 12 -119 -22 l-24 -26 -5 -321 -5 -322 -112 -3
-113 -3 0 311 c0 343 -2 355 -61 386 -40 20 -88 12 -120 -22 l-24 -26 -5 -321
-5 -322 -112 -3 -112 -3 -3 325 -3 326 -28 27 c-22 22 -37 28 -73 28 -39 0
-50 -5 -75 -33 l-29 -32 0 -274 c0 -150 -3 -294 -6 -320 l-7 -46 -108 0 -109
0 0 309 c0 177 -4 321 -10 335 -24 65 -118 82 -169 31 l-26 -25 -5 -323 -5
-322 -112 -3 -113 -3 0 318 c0 350 1 347 -62 379 -39 20 -87 12 -119 -22 l-24
-26 -5 -321 -5 -322 -112 -3 -113 -3 0 318 c0 350 1 347 -62 379 -39 20 -87
12 -119 -22 l-24 -26 -5 -321 -5 -322 -110 0 -110 0 -5 321 c-5 346 -4 340
-61 370 -31 16 -54 17 -85 4z m5676 -4130 l0 -3220 -3217 2 -3218 3 -3 3218
-2 3217 3220 0 3220 0 0 -3220z"/>
<path d="M2703 7595 c-17 -7 -40 -26 -50 -41 -17 -27 -18 -121 -18 -2430 0
-2624 -4 -2438 57 -2470 23 -12 379 -14 2436 -14 l2409 0 26 21 c15 11 31 37
37 57 8 26 10 746 8 2422 -3 2291 -4 2387 -21 2414 -40 60 129 56 -2469 56
-2004 -1 -2388 -3 -2415 -15z m707 -339 l0 -133 -77 -5 c-43 -3 -90 -11 -105
-18 -39 -19 -58 -66 -58 -149 l0 -71 -160 0 -160 0 0 255 0 255 280 0 280 0 0
-134z m1602 -3 l-3 -138 -73 0 c-124 0 -156 -33 -156 -160 l0 -75 -465 0 -465
0 0 84 c0 74 -3 88 -22 111 -26 30 -78 44 -160 45 l-58 0 0 135 0 135 703 0
702 0 -3 -137z m1616 0 l-3 -137 -56 3 c-137 6 -179 -32 -179 -161 l0 -78
-465 0 -465 0 0 74 c0 131 -24 157 -151 164 l-79 5 -1 106 c-1 58 -2 118 -3
134 l-2 27 703 0 704 0 -3 -137z m762 -118 l0 -255 -160 0 -160 0 0 78 c0 129
-36 162 -177 162 l-63 0 0 135 0 135 280 0 280 0 0 -255z m-3750 -360 l0 -125
-130 0 -130 0 0 125 0 125 130 0 130 0 0 -125z m1610 0 l0 -125 -130 0 -130 0
0 125 0 125 130 0 130 0 0 -125z m1610 0 l0 -125 -130 0 -130 0 0 125 0 125
130 0 130 0 0 -125z m-3690 -170 c0 -130 35 -165 165 -165 l75 0 0 -489 0
-488 -83 -5 c-46 -3 -93 -12 -105 -19 -35 -22 -52 -70 -52 -148 l0 -71 -160 0
-160 0 0 730 0 730 160 0 160 0 0 -75z m1040 -122 l0 -198 -79 -1 c-124 0
-161 -39 -161 -169 l0 -65 -180 0 -180 0 0 194 0 194 91 4 c88 3 92 4 120 36
27 30 29 38 29 117 l0 85 180 0 180 0 0 -197z m570 112 c0 -79 2 -87 29 -117
28 -32 33 -33 115 -37 l86 -3 0 -194 0 -194 -175 0 -175 0 -1 63 c0 78 -16
124 -52 151 -22 17 -43 21 -107 21 l-80 0 0 198 0 197 180 0 180 0 0 -85z
m1038 -112 l-3 -198 -78 -2 c-122 -2 -150 -30 -151 -153 l-1 -75 -180 0 -180
0 -3 191 -2 192 91 3 c88 4 92 5 120 37 27 30 29 38 29 117 l0 85 180 0 180 0
-2 -197z m572 112 c0 -79 2 -87 29 -117 28 -32 32 -33 120 -36 l91 -4 0 -194
0 -194 -179 0 -178 0 -5 86 c-4 79 -7 87 -35 116 -30 30 -35 31 -117 32 l-86
1 0 198 0 197 180 0 180 0 0 -85z m1000 -644 l0 -729 -160 -1 -160 -2 0 78 c0
130 -36 163 -177 163 l-63 0 0 490 0 490 78 0 c59 0 84 5 110 20 42 26 52 54
52 146 l0 74 160 0 160 0 0 -729z m-2950 -6 l0 -126 -127 3 -128 3 -3 123 -3
122 131 0 130 0 0 -125z m1618 3 l-3 -123 -130 0 -130 0 -3 123 -3 122 136 0
136 0 -3 -122z m-2086 -180 c7 -129 37 -158 162 -158 l76 0 0 -189 c0 -187 0
-189 -22 -195 -13 -3 -94 -6 -180 -6 l-158 0 0 84 c0 69 -4 88 -20 109 -25 32
-75 47 -157 47 l-63 0 0 188 c0 104 3 192 7 195 3 4 84 7 178 7 l172 0 5 -82z
m1038 -113 l0 -195 -57 0 c-137 0 -173 -34 -173 -162 l0 -78 -180 0 -180 0 0
195 0 195 73 0 c131 0 165 36 166 173 l1 67 175 0 175 0 0 -195z m576 106 c2
-84 2 -85 38 -118 34 -32 39 -33 116 -33 l80 0 0 -189 0 -188 -77 -7 c-42 -3
-123 -6 -180 -6 l-103 0 0 78 c0 129 -36 162 -176 162 l-62 0 -1 185 c-1 102
1 190 4 195 4 7 72 9 183 8 l177 -3 1 -84z m1042 -108 l2 -193 -62 0 c-142 0
-178 -33 -178 -162 l0 -78 -180 0 -180 0 0 195 0 195 75 0 c130 0 165 37 165
170 l0 70 178 -2 177 -3 3 -192z m-2988 -532 l0 -118 -31 -7 c-40 -8 -177 -8
-206 0 -22 6 -23 10 -23 125 l0 119 130 0 130 0 0 -119z m1610 -1 c0 -142 11
-132 -150 -128 l-105 3 -3 123 -3 122 131 0 130 0 0 -120z m1610 1 c0 -99 -3
-120 -16 -125 -9 -3 -67 -6 -130 -6 l-114 0 0 125 0 125 130 0 130 0 0 -119z
m-3689 -186 c4 -80 6 -86 36 -116 30 -31 35 -32 115 -33 l83 -2 3 -492 2 -492
-67 -1 c-136 -1 -173 -36 -173 -161 l0 -68 -160 0 -160 0 0 725 0 725 159 0
159 0 3 -85z m1039 -109 l0 -193 -82 -5 c-126 -7 -149 -29 -156 -150 l-5 -78
-178 0 -179 0 0 190 0 190 63 0 c82 0 132 15 157 47 16 21 20 40 20 109 l0 84
180 0 180 0 0 -194z m570 117 c0 -129 44 -170 177 -161 l53 3 0 -192 0 -193
-175 0 -175 0 0 66 c0 73 -18 121 -52 143 -13 8 -59 17 -105 19 l-83 5 0 193
0 194 180 0 180 0 0 -77z m1040 -117 l0 -193 -82 -5 c-126 -7 -149 -29 -156
-150 l-5 -78 -177 0 -178 0 -1 190 -2 190 73 0 c83 0 135 20 155 60 7 14 13
60 13 103 l0 77 180 0 180 0 0 -194z m570 117 c0 -130 44 -169 179 -161 l56 3
3 -192 2 -193 -180 0 -180 0 0 65 c0 128 -38 165 -170 165 l-70 0 0 195 0 195
180 0 180 0 0 -77z m1000 -648 l0 -725 -160 0 -160 0 0 69 c0 127 -25 152
-156 159 l-84 5 0 487 0 487 83 5 c130 7 157 35 157 163 l0 75 160 0 160 0 0
-725z m-2950 0 l0 -125 -130 0 -130 0 0 125 0 125 130 0 130 0 0 -125z m1620
0 l0 -125 -132 0 -133 0 1 118 c0 64 1 120 2 125 1 4 61 7 132 7 l130 0 0
-125z m-2088 -192 c4 -82 6 -87 36 -115 30 -26 38 -28 117 -28 l85 0 0 -195 0
-195 -180 0 -180 0 0 78 c0 120 -36 152 -170 152 l-70 0 0 195 0 195 179 0
178 0 5 -87z m1040 -60 c1 -82 2 -169 2 -194 l1 -47 -81 -4 c-129 -7 -154 -33
-154 -159 l0 -69 -180 0 -180 0 0 193 0 192 79 1 c124 1 161 39 161 169 l0 65
175 0 175 0 2 -147z m573 67 c1 -64 5 -85 21 -107 29 -39 77 -54 152 -47 l62
6 0 -196 0 -196 -180 0 -180 0 0 78 c0 119 -36 152 -168 152 l-69 0 -2 195 -2
195 183 0 183 0 0 -80z m1043 -116 l2 -191 -84 -5 c-131 -7 -156 -32 -156
-159 l0 -69 -180 0 -180 0 0 195 0 195 83 0 c124 0 157 35 157 165 l0 65 178
-2 177 -3 3 -191z m-2988 -529 l0 -125 -130 0 -130 0 0 118 c0 65 3 122 7 125
3 4 62 7 130 7 l123 0 0 -125z m1610 0 l0 -125 -130 0 -130 0 0 125 0 125 130
0 130 0 0 -125z m1610 0 l0 -125 -130 0 -130 0 0 125 0 125 130 0 130 0 0
-125z m-3689 -190 c4 -77 7 -87 32 -112 25 -25 36 -28 115 -33 l87 -5 3 -136
3 -136 -32 -7 c-17 -3 -143 -6 -280 -6 l-249 0 0 260 0 260 159 0 159 0 3 -85z
m1610 -1 c4 -82 5 -87 37 -115 30 -27 38 -29 112 -29 l79 0 3 -139 3 -139
-100 -7 c-55 -3 -370 -5 -700 -3 l-600 3 -3 143 -3 142 80 0 c134 0 161 26
161 155 l0 75 464 0 464 0 3 -86z m1609 11 c0 -127 28 -155 154 -155 l73 0 6
-67 c4 -38 7 -100 7 -140 l0 -72 -52 -6 c-29 -3 -345 -5 -703 -3 l-650 3 0
140 0 140 85 6 c47 3 92 8 101 12 32 16 49 63 49 141 l0 76 465 0 465 0 0 -75z
m1000 -184 l0 -260 -277 2 -278 2 -3 143 -3 142 80 0 c134 0 161 26 161 155
l0 75 160 0 160 0 0 -259z"/>
</g>
</svg>
