<?xml version="1.0" standalone="no"?>
<!DOCTYPE svg PUBLIC "-//W3C//DTD SVG 20010904//EN"
 "http://www.w3.org/TR/2001/REC-SVG-20010904/DTD/svg10.dtd">
<svg version="1.0" xmlns="http://www.w3.org/2000/svg"
 width="678.818042pt" height="793.590014pt" viewBox="0 0 678.818042 793.590014"
 preserveAspectRatio="xMidYMid meet">
<metadata>
Created by potrace 1.16, written by Peter Selinger 2001-2019
</metadata>
<g transform="translate(-172.229770,908.790473) scale(0.100000,-0.100000)"
fill="#000000" stroke="none">
<path d="M4770 9083 c-777 -34 -1438 -160 -2035 -388 -126 -48 -408 -192 -517
-264 -188 -125 -353 -299 -424 -448 -69 -147 -68 -127 -68 -938 -1 -678 0
-735 17 -795 10 -35 27 -80 37 -99 17 -34 17 -37 -1 -79 -47 -109 -47 -116
-51 -892 -3 -687 -2 -739 15 -799 19 -66 69 -174 93 -202 13 -14 10 -23 -21
-75 -77 -128 -77 -125 -87 -729 -11 -659 -6 -976 17 -1059 54 -194 198 -368
437 -526 493 -327 1300 -544 2298 -620 235 -18 840 -24 1085 -11 682 36 1254
131 1751 292 603 194 979 441 1130 741 66 131 64 104 64 933 0 841 3 805 -73
956 -39 78 -42 89 -29 105 24 31 78 155 91 207 8 34 11 259 11 786 0 781 0
779 -48 891 -19 45 -19 45 3 95 44 100 44 110 45 885 1 832 4 796 -70 945
-280 571 -1449 1010 -2890 1085 -175 9 -610 11 -780 3z m730 -273 c647 -31
1190 -124 1690 -290 568 -188 940 -443 1030 -704 50 -147 -1 -297 -154 -450
-401 -401 -1331 -698 -2431 -777 -207 -15 -816 -15 -1015 0 -711 53 -1272 170
-1762 367 -435 174 -716 379 -820 600 -29 60 -33 79 -33 149 0 72 4 88 37 155
65 134 164 236 343 354 635 418 1872 655 3115 596z m-3355 -1773 c335 -255
870 -465 1515 -596 910 -185 1983 -186 2900 -5 681 135 1235 357 1580 635 l95
77 3 -398 c2 -364 1 -403 -16 -457 -49 -156 -215 -317 -477 -462 -278 -153
-704 -293 -1190 -390 -870 -174 -1996 -172 -2890 5 -446 89 -801 202 -1094
349 -282 141 -457 289 -535 455 l-31 65 -3 419 -3 418 38 -31 c21 -17 70 -55
108 -84z m127 -1384 c280 -169 577 -286 988 -392 382 -98 764 -160 1260 -201
205 -18 773 -24 1007 -11 1169 63 2144 337 2641 743 l72 59 0 -41 c0 -59 -32
-142 -84 -214 -285 -399 -1210 -751 -2266 -861 -465 -48 -1039 -48 -1525 0
-556 56 -1084 179 -1523 356 -498 202 -815 466 -839 703 l-6 58 96 -75 c52
-41 133 -97 179 -124z m-122 -490 c234 -183 624 -360 1074 -487 403 -115 765
-180 1276 -228 217 -21 1078 -17 1305 5 798 79 1454 250 1961 511 169 88 281
159 389 249 l80 67 3 -404 c2 -389 1 -407 -19 -460 -122 -328 -691 -635 -1514
-816 -540 -119 -1070 -168 -1725 -157 -737 12 -1350 103 -1910 283 -543 174
-909 402 -1026 638 l-39 80 -3 419 -3 420 43 -35 c24 -19 72 -57 108 -85z m81
-1356 c510 -324 1328 -544 2299 -619 219 -17 964 -17 1180 0 1066 83 1978 349
2421 707 l66 54 19 -42 c14 -29 19 -65 19 -122 0 -118 -37 -188 -169 -321
-320 -320 -969 -575 -1801 -708 -335 -53 -581 -74 -985 -82 -1166 -26 -2276
211 -2885 614 -317 210 -445 417 -374 607 l20 55 67 -54 c37 -29 92 -70 123
-89z m-141 -628 c631 -527 2025 -840 3430 -769 1142 58 2106 341 2640 776 l81
65 -3 -438 -3 -438 -33 -68 c-75 -153 -287 -318 -574 -448 -453 -205 -1063
-347 -1778 -415 -225 -21 -942 -30 -1210 -15 -721 41 -1385 172 -1890 373
-363 144 -623 329 -710 503 l-35 70 -5 442 c-4 392 -3 440 10 429 8 -7 44 -37
80 -67z"/>
</g>
</svg>
