<?xml version="1.0" standalone="no"?>
<!DOCTYPE svg PUBLIC "-//W3C//DTD SVG 20010904//EN"
 "http://www.w3.org/TR/2001/REC-SVG-20010904/DTD/svg10.dtd">
<svg version="1.0" xmlns="http://www.w3.org/2000/svg"
 width="725.783491pt" height="755.521862pt" viewBox="0 0 725.783491 755.521862"
 preserveAspectRatio="xMidYMid meet">
<metadata>
Created by potrace 1.16, written by Peter Selinger 2001-2019
</metadata>
<g transform="translate(-149.113210,889.679595) scale(0.100000,-0.100000)"
fill="#000000" stroke="none">
<path d="M7175 8891 c-37 -16 -58 -50 -67 -108 -17 -108 -79 -186 -178 -223
-23 -9 -119 -15 -291 -19 l-255 -6 -75 -37 c-132 -66 -217 -176 -239 -312 -14
-87 13 -140 77 -152 62 -12 123 35 123 93 0 73 56 153 130 187 40 18 72 21
300 26 248 6 257 7 320 33 174 72 291 235 294 409 1 49 -3 61 -25 83 -27 28
-82 40 -114 26z"/>
<path d="M8525 8891 c-37 -16 -58 -50 -67 -108 -17 -108 -78 -185 -178 -223
-25 -10 -119 -15 -321 -19 l-285 -6 -77 -38 c-136 -67 -216 -171 -240 -311
-10 -59 -9 -71 7 -100 20 -38 52 -56 97 -56 41 0 99 56 99 95 0 78 50 153 126
191 35 17 71 19 329 24 278 5 292 7 345 30 163 71 261 186 296 349 16 78 10
121 -21 151 -25 23 -80 34 -110 21z"/>
<path d="M5863 7890 c-57 -34 -51 6 -83 -535 -11 -181 -45 -742 -75 -1245 -30
-503 -60 -1000 -65 -1105 -6 -104 -13 -208 -16 -230 l-4 -40 -183 -63 c-100
-34 -185 -62 -189 -62 -5 0 -8 78 -8 173 0 192 -4 207 -65 233 -30 12 -59 7
-394 -71 -198 -47 -365 -85 -371 -85 -6 0 -10 55 -10 145 0 163 -8 193 -60
220 -28 15 -70 11 -593 -45 -309 -34 -744 -81 -966 -104 l-405 -44 -28 -31
-28 -31 0 -295 0 -295 -185 0 c-199 0 -231 -6 -257 -53 -10 -17 -14 -148 -18
-556 l-5 -535 -157 -65 c-87 -37 -168 -76 -180 -89 l-23 -23 -3 -814 c-3 -897
-5 -857 58 -890 26 -13 419 -15 3584 -13 l3556 3 27 28 28 27 3 1160 c3 1291
7 1202 -66 1239 -21 11 -173 76 -337 146 -165 69 -303 129 -306 133 -4 4 -12
93 -18 197 -6 105 -29 496 -51 870 -140 2368 -159 2666 -175 2703 -26 58 -51
62 -347 62 -282 0 -294 -2 -331 -52 -18 -25 -24 -96 -78 -990 -104 -1714 -140
-2303 -144 -2306 -2 -2 -43 14 -92 35 l-88 38 -52 860 c-53 894 -90 1488 -123
2024 -15 247 -23 319 -35 338 -32 48 -63 53 -347 53 -243 0 -265 -2 -295 -20z
m458 -217 c0 -16 6 -108 12 -205 l12 -178 -179 0 -179 0 7 138 c3 75 9 167 12
205 l7 67 153 0 154 0 1 -27z m1293 -80 c3 -60 9 -152 13 -205 l6 -98 -182 0
-183 0 6 38 c3 20 8 96 11 167 3 72 8 147 11 168 l6 37 152 0 153 0 7 -107z
m-1250 -605 c3 -50 6 -111 6 -135 l0 -43 -205 0 -205 0 0 43 c0 24 3 85 6 135
l7 92 192 0 192 0 7 -92z m1286 55 c0 -21 3 -82 7 -135 l6 -98 -209 0 -209 0
7 112 c3 62 7 123 7 136 l1 22 195 0 195 0 0 -37z m-1260 -475 c0 -18 5 -96
10 -173 5 -77 21 -342 35 -590 14 -247 34 -589 45 -759 11 -171 18 -312 16
-314 -2 -2 -89 33 -193 77 -105 45 -197 81 -205 81 -9 0 -68 -18 -132 -40 -64
-22 -119 -40 -122 -40 -4 0 -4 42 -1 93 4 50 23 371 42 712 19 341 39 690 45
775 5 85 10 167 10 182 l0 28 225 0 225 0 0 -32z m1292 -88 c4 -63 18 -320 33
-570 32 -580 83 -1425 95 -1600 5 -74 7 -136 6 -137 -3 -3 -703 291 -711 298
-2 2 3 101 11 219 7 118 30 483 49 810 19 327 42 707 50 845 8 137 15 251 15
253 0 1 100 1 223 0 l222 -3 7 -115z m-3494 -1567 l-3 -107 -185 -43 c-102
-24 -320 -74 -485 -113 -165 -38 -381 -88 -480 -110 -99 -22 -194 -47 -211
-54 -65 -30 -64 -18 -64 -689 0 -639 1 -617 -41 -617 -5 0 -9 65 -9 149 0 145
-1 150 -25 179 -30 36 -67 45 -117 27 l-38 -13 0 658 0 658 48 6 c26 4 218 24
427 47 209 22 556 59 770 83 215 24 396 44 403 45 10 1 12 -24 10 -106z m842
-250 l0 -128 -472 -155 c-501 -164 -560 -187 -574 -216 -5 -11 -11 -212 -14
-449 l-5 -429 -120 -52 c-66 -29 -123 -53 -127 -53 -5 -1 -8 67 -8 150 l0 151
-29 29 c-51 50 -76 44 -406 -96 -162 -69 -297 -125 -300 -125 -3 0 -5 229 -5
510 l0 509 38 10 c20 5 359 84 752 176 393 91 837 194 985 229 149 35 273 65
278 65 4 1 7 -56 7 -126z m1402 -134 c183 -77 419 -177 523 -221 105 -44 402
-170 660 -280 259 -110 572 -243 698 -296 l227 -96 0 -1043 0 -1043 -95 0 -95
0 0 585 c0 643 1 628 -60 660 -26 13 -127 15 -836 13 l-806 -3 -29 -33 -29
-32 0 -595 0 -595 -195 0 -195 0 -2 103 c-1 56 -2 688 -2 1404 l-1 1302 -29
30 c-16 16 -41 33 -56 36 -21 5 -240 -63 -821 -254 -437 -142 -804 -262 -816
-266 -36 -10 -73 -62 -73 -102 0 -43 54 -103 93 -103 24 0 158 43 1032 330
231 75 430 141 443 145 l23 7 -5 -209 c-3 -114 -5 -706 -5 -1315 l-1 -1108
-275 0 -275 0 0 596 0 596 -34 34 -34 34 -326 0 -326 0 0 325 c0 349 -3 370
-51 396 -42 22 -88 10 -277 -70 -104 -45 -192 -81 -196 -81 -3 0 -6 147 -6
328 l0 327 948 316 c521 174 952 317 959 318 6 0 161 -62 345 -140z m-4112
-727 l0 -368 -117 -49 c-64 -28 -120 -51 -125 -53 -4 -2 -8 186 -8 417 l0 421
125 0 125 0 0 -368z m187 -640 c-7 -138 2 -188 38 -219 47 -41 81 -32 385 100
174 75 558 237 564 237 2 0 6 -68 8 -151 l3 -151 33 -29 c22 -20 43 -29 67
-29 21 0 112 33 232 84 546 231 653 276 658 276 3 0 5 -389 5 -865 l0 -865
-690 0 -690 0 0 346 0 346 -34 34 -34 34 -537 0 c-476 0 -540 -2 -564 -16 -56
-33 -56 -31 -59 -401 l-3 -343 -94 0 -95 0 0 698 0 698 188 79 c103 44 279
119 392 167 113 48 211 87 219 88 12 0 13 -21 8 -118z m2714 -569 c6 -76 9
-779 4 -890 l-7 -153 -254 0 -254 0 0 525 0 525 255 0 c140 0 255 -3 256 -7z
m2919 -518 l0 -525 -675 0 -675 0 0 525 0 525 675 0 675 0 0 -525z m-5740
-250 l0 -275 -150 0 -150 0 0 275 0 275 150 0 150 0 0 -275z m520 0 l-1 -275
-155 0 -154 0 0 275 0 275 155 0 156 0 -1 -275z"/>
<path d="M3459 2231 c-41 -41 -41 -98 0 -143 l29 -33 327 0 327 0 29 33 c41
45 41 102 0 143 l-29 29 -327 0 -327 0 -29 -29z"/>
</g>
</svg>
