<?xml version="1.0" standalone="no"?>
<!DOCTYPE svg PUBLIC "-//W3C//DTD SVG 20010904//EN"
 "http://www.w3.org/TR/2001/REC-SVG-20010904/DTD/svg10.dtd">
<svg version="1.0" xmlns="http://www.w3.org/2000/svg"
 width="665.963657pt" height="819.664897pt" viewBox="0 0 665.963657 819.664897"
 preserveAspectRatio="xMidYMid meet">
<metadata>
Created by potrace 1.16, written by Peter Selinger 2001-2019
</metadata>
<g transform="translate(-179.138069,921.665475) scale(0.100000,-0.100000)"
fill="#000000" stroke="none">
<path d="M5005 9214 c-126 -21 -232 -68 -360 -159 -114 -82 -142 -99 -209
-124 -130 -48 -293 -36 -518 40 -106 36 -135 42 -213 43 -73 0 -99 -4 -140
-22 -158 -72 -222 -247 -148 -403 17 -35 139 -257 272 -493 132 -237 241 -433
241 -437 0 -4 -36 -33 -80 -63 -393 -276 -813 -700 -1124 -1136 -493 -690
-804 -1453 -906 -2220 -27 -204 -37 -574 -21 -775 76 -945 502 -1624 1271
-2028 515 -271 1230 -417 2044 -417 1178 0 2065 279 2625 824 310 303 507 654
621 1106 103 409 120 936 44 1410 -168 1050 -761 2134 -1573 2875 -155 142
-328 284 -448 368 -52 36 -72 56 -68 67 4 8 111 202 240 430 309 550 298 528
298 614 1 88 -27 156 -86 214 -66 65 -125 87 -232 86 -78 -1 -106 -6 -213 -42
-326 -111 -487 -95 -712 73 -92 69 -205 127 -292 151 -54 15 -258 26 -313 18z
m216 -268 c85 -18 153 -53 260 -132 153 -114 285 -163 461 -171 136 -7 238 8
397 59 144 45 243 56 249 26 2 -10 -70 -150 -161 -310 -90 -161 -212 -380
-272 -485 l-107 -193 -179 0 c-98 0 -179 4 -179 8 0 4 25 82 55 172 58 174 65
224 38 271 -47 80 -184 75 -226 -8 -8 -15 -45 -121 -83 -235 l-69 -208 -285 0
-285 0 -85 261 c-46 144 -92 279 -102 300 -33 74 -123 101 -189 56 -40 -27
-59 -60 -59 -106 0 -19 34 -139 75 -267 41 -128 75 -235 75 -238 0 -3 -81 -6
-179 -6 l-179 0 -93 168 c-51 92 -171 307 -267 477 -95 171 -175 321 -175 335
-3 41 60 39 214 -9 190 -59 282 -74 419 -68 63 3 142 12 175 21 88 24 210 86
295 149 175 131 300 167 461 133z m-813 -1498 c-135 -206 -248 -470 -248 -579
0 -79 53 -129 134 -129 38 0 52 6 81 33 28 26 40 49 61 122 48 169 165 383
292 531 l37 43 396 1 396 0 11 -57 c27 -140 34 -243 29 -388 -7 -167 -29 -291
-83 -456 -39 -121 -42 -161 -15 -205 19 -32 74 -64 109 -64 30 0 74 19 99 42
23 22 67 144 102 283 36 141 53 276 55 427 0 82 2 148 3 148 1 0 22 -30 46
-67 238 -361 386 -818 413 -1280 8 -125 21 -159 76 -193 66 -40 152 -14 185
55 31 66 -10 420 -83 715 -86 345 -262 721 -459 981 l-45 59 53 0 c48 0 61 -5
139 -58 375 -256 747 -619 1043 -1017 196 -263 344 -505 490 -800 290 -587
442 -1159 462 -1740 12 -370 -41 -753 -147 -1060 -45 -130 -149 -339 -226
-452 -269 -398 -648 -669 -1184 -847 -376 -125 -735 -184 -1250 -207 -517 -24
-1060 23 -1486 126 -1065 258 -1661 873 -1808 1865 -114 763 68 1650 504 2461
369 686 875 1267 1454 1667 l89 62 145 0 144 0 -14 -22z"/>
<path d="M5053 6130 c-52 -31 -63 -64 -63 -190 0 -80 -3 -112 -12 -114 -7 -2
-53 -13 -103 -25 -242 -58 -454 -220 -564 -431 -63 -120 -85 -213 -85 -355 -1
-139 20 -228 80 -348 112 -221 336 -385 607 -444 l77 -16 0 -563 0 -562 -39 9
c-213 48 -396 214 -446 404 -8 33 -15 79 -15 102 0 89 -49 152 -123 160 -54 6
-100 -15 -128 -60 -18 -28 -20 -43 -15 -117 7 -110 27 -186 77 -287 116 -239
351 -413 626 -466 l63 -12 0 -115 c0 -132 15 -170 75 -196 45 -18 69 -18 112
3 61 28 73 61 73 196 0 116 0 117 23 117 50 0 186 42 272 84 222 107 375 280
441 501 38 124 40 301 6 419 -47 161 -149 317 -274 412 -96 74 -252 149 -369
176 l-99 23 0 563 c0 309 2 562 4 562 2 0 35 -9 72 -21 109 -33 182 -77 265
-159 109 -108 147 -192 165 -364 5 -47 12 -65 38 -93 58 -64 160 -54 207 20
18 28 20 43 15 117 -3 47 -12 112 -21 145 -23 89 -96 231 -159 306 -111 135
-296 249 -471 291 -49 11 -96 22 -102 24 -10 3 -13 34 -13 116 0 94 -3 118
-20 145 -37 61 -116 81 -177 43z m-68 -1648 c-9 -9 -115 27 -193 65 -273 133
-379 441 -245 708 14 28 60 84 102 126 82 82 176 136 281 163 l55 13 3 -535
c1 -294 0 -538 -3 -540z m358 -343 c279 -93 438 -322 406 -584 -19 -153 -137
-318 -281 -395 -66 -36 -198 -81 -210 -73 -5 2 -8 245 -8 539 0 473 2 534 15
534 9 0 44 -9 78 -21z"/>
</g>
</svg>
