<?xml version="1.0" standalone="no"?>
<!DOCTYPE svg PUBLIC "-//W3C//DTD SVG 20010904//EN"
 "http://www.w3.org/TR/2001/REC-SVG-20010904/DTD/svg10.dtd">
<svg version="1.0" xmlns="http://www.w3.org/2000/svg"
 width="909.000000pt" height="433.989676pt" viewBox="0 0 909.000000 433.989676"
 preserveAspectRatio="xMidYMid meet">
<metadata>
Created by potrace 1.16, written by Peter Selinger 2001-2019
</metadata>
<g transform="translate(-57.500000,728.989676) scale(0.100000,-0.100000)"
fill="#000000" stroke="none">
<path d="M2589 7266 c-32 -12 -70 -33 -85 -45 -27 -21 -169 -208 -767 -1012
l-242 -326 -350 -4 c-333 -4 -352 -5 -396 -25 -60 -28 -125 -93 -153 -153
l-21 -46 0 -1245 0 -1245 23 -45 c34 -70 77 -116 134 -144 l52 -26 4336 0
4336 0 52 26 c59 29 106 79 136 143 21 46 21 46 21 1291 0 1245 0 1245 -21
1291 -31 66 -78 114 -142 146 l-57 28 -349 2 c-192 2 -350 4 -351 5 -1 2 -190
257 -421 568 -231 311 -452 608 -490 660 -39 52 -89 108 -111 123 -88 61 90
57 -2607 57 l-2471 0 -56 -24z m5025 -226 c29 -30 866 -1153 866 -1162 0 -1
-1512 -2 -3360 0 l-3360 2 83 113 c399 538 764 1027 785 1049 14 15 34 29 46
31 11 2 1120 4 2463 3 l2443 -1 34 -35z m-6184 -2630 l0 -1250 -300 0 c-287 0
-301 1 -320 20 -20 20 -20 33 -20 1230 0 1197 0 1210 20 1230 19 19 33 20 320
20 l300 0 0 -1250z m7170 0 l0 -1250 -504 0 -504 0 -4 308 -3 307 -33 67 c-38
77 -84 120 -160 148 -52 20 -85 20 -2266 20 -2484 0 -2273 7 -2366 -76 -96
-87 -95 -81 -98 -451 l-3 -323 -510 0 -509 0 0 1250 0 1250 3480 0 3480 0 0
-1250z m830 1230 c20 -20 20 -33 20 -1230 0 -1197 0 -1210 -20 -1230 -19 -19
-33 -20 -320 -20 l-300 0 0 1250 0 1250 300 0 c287 0 301 -1 320 -20z m-2083
-1820 c61 -37 63 -48 63 -370 l0 -290 -2290 0 -2290 0 0 293 c0 275 1 294 20
325 40 66 -130 61 2275 62 2155 0 2191 0 2222 -20z"/>
<path d="M1060 5419 c-111 -22 -191 -112 -198 -224 -5 -73 8 -118 48 -174 40
-55 106 -92 179 -98 49 -5 68 -1 112 19 126 58 182 175 145 302 -36 125 -159
200 -286 175z m105 -184 c33 -32 34 -89 3 -122 -30 -32 -90 -32 -123 2 -54 53
-16 145 60 145 25 0 44 -8 60 -25z"/>
<path d="M1038 3891 c-71 -23 -136 -82 -163 -148 -24 -57 -19 -150 10 -210 78
-156 297 -183 411 -50 106 125 67 313 -80 389 -44 23 -136 32 -178 19z m130
-183 c31 -30 30 -91 -3 -123 -52 -53 -144 -14 -145 60 -1 82 87 119 148 63z"/>
<path d="M1995 5393 c-64 -16 -80 -99 -27 -139 14 -11 596 -13 3153 -14 2973
0 3138 1 3158 18 34 28 37 73 8 108 l-25 29 -3124 1 c-1717 1 -3132 0 -3143
-3z"/>
<path d="M1967 5108 c-41 -32 -40 -105 2 -127 14 -8 964 -11 3154 -11 3048 0
3135 1 3158 19 32 26 32 86 0 112 -23 18 -110 19 -3160 19 -2494 0 -3141 -3
-3154 -12z"/>
<path d="M1964 4827 c-20 -17 -27 -33 -27 -57 0 -24 7 -40 27 -57 l27 -23
3127 0 c2462 0 3132 3 3151 13 52 26 48 111 -5 136 -18 8 -848 11 -3149 11
l-3124 0 -27 -23z"/>
<path d="M1958 4553 c-9 -10 -19 -28 -22 -40 -8 -26 16 -78 39 -87 9 -3 1427
-6 3151 -6 l3135 0 24 25 c30 30 32 64 4 99 l-20 26 -3148 0 c-2985 0 -3149
-1 -3163 -17z"/>
<path d="M1963 4280 c-12 -10 -24 -28 -28 -40 -9 -27 14 -72 45 -87 20 -10
648 -13 3137 -13 1954 0 3121 4 3137 10 57 21 70 86 26 130 -20 20 -47 20
-3158 20 -3106 0 -3138 0 -3159 -20z"/>
<path d="M9085 5421 c-164 -41 -249 -216 -176 -359 26 -51 88 -105 145 -127
116 -45 263 22 313 144 32 75 14 184 -41 256 -47 61 -167 104 -241 86z m90
-167 c21 -8 45 -56 45 -89 0 -38 -41 -75 -85 -75 -25 0 -44 8 -60 25 -68 67 8
174 100 139z"/>
<path d="M9040 3880 c-122 -57 -182 -180 -146 -302 20 -70 64 -120 131 -154
169 -82 355 35 355 223 0 74 -15 115 -60 167 -69 78 -192 107 -280 66z m158
-176 c50 -56 10 -144 -65 -144 -96 0 -115 138 -23 173 26 10 64 -3 88 -29z"/>
<path d="M2986 3708 c-13 -18 -16 -53 -16 -173 0 -180 6 -195 76 -195 40 0 44
-2 44 -24 0 -47 31 -56 182 -56 125 0 140 2 158 20 11 11 20 29 20 40 0 17 7
20 43 20 24 0 48 5 55 12 8 8 12 64 12 185 0 160 -1 173 -19 183 -12 6 -120
10 -280 10 -257 0 -260 0 -275 -22z m464 -172 l0 -85 -47 -3 c-43 -3 -50 -6
-63 -35 -14 -31 -18 -33 -71 -33 -53 0 -56 1 -70 33 -13 30 -18 32 -66 35
l-53 3 0 85 0 84 185 0 185 0 0 -84z"/>
<path d="M3737 3712 c-14 -16 -17 -44 -17 -180 0 -182 4 -192 69 -192 35 0 39
-3 45 -30 8 -43 36 -50 184 -50 138 0 168 9 174 53 2 18 10 23 43 25 72 6 75
14 75 191 0 126 -3 161 -16 179 -15 22 -18 22 -278 22 -242 0 -264 -1 -279
-18z m463 -177 l0 -85 -48 0 c-53 0 -72 -12 -72 -47 0 -22 -4 -23 -62 -23 -61
0 -63 1 -78 33 -13 29 -20 32 -62 35 l-48 3 0 85 0 84 185 0 185 0 0 -85z"/>
<path d="M4476 3708 c-13 -18 -16 -53 -16 -173 0 -177 6 -192 73 -197 35 -2
43 -7 45 -25 6 -44 36 -53 174 -53 148 0 176 7 184 50 6 28 10 30 48 30 23 0
47 5 54 12 8 8 12 63 12 179 0 139 -3 170 -16 183 -13 14 -53 16 -279 16 -261
0 -264 0 -279 -22z m464 -172 l0 -85 -47 -3 c-43 -3 -50 -6 -63 -35 -15 -32
-17 -33 -77 -33 -60 0 -63 1 -63 25 0 30 -26 45 -79 45 l-41 0 0 85 0 85 185
0 185 0 0 -84z"/>
<path d="M5224 3716 c-17 -13 -19 -29 -22 -168 -3 -187 2 -202 70 -206 42 -3
47 -6 50 -30 5 -42 37 -52 183 -52 144 0 175 10 175 56 0 22 4 24 44 24 70 0
76 15 76 195 0 120 -3 155 -16 173 -15 22 -18 22 -278 22 -210 0 -266 -3 -282
-14z m466 -181 l0 -85 -48 0 c-53 0 -72 -12 -72 -47 0 -22 -4 -23 -62 -23 -61
0 -63 1 -78 33 -13 28 -20 32 -61 35 -55 4 -59 11 -59 110 l0 62 190 0 190 0
0 -85z"/>
<path d="M6265 3701 c-122 -56 -169 -193 -107 -312 83 -160 316 -157 396 3 46
93 29 195 -45 265 -67 63 -164 81 -244 44z m141 -120 c46 -28 61 -80 37 -129
-44 -90 -165 -74 -189 25 -9 34 15 82 50 104 39 24 63 24 102 0z"/>
<path d="M6922 3707 c-161 -59 -199 -270 -68 -385 79 -69 206 -70 289 -1 132
109 100 319 -60 386 -39 16 -116 16 -161 0z m151 -147 c40 -44 37 -92 -7 -136
-21 -21 -44 -34 -60 -34 -87 0 -137 98 -85 164 43 54 105 57 152 6z"/>
</g>
</svg>
