<?xml version="1.0" standalone="no"?>
<!DOCTYPE svg PUBLIC "-//W3C//DTD SVG 20010904//EN"
 "http://www.w3.org/TR/2001/REC-SVG-20010904/DTD/svg10.dtd">
<svg version="1.0" xmlns="http://www.w3.org/2000/svg"
 width="722.657882pt" height="894.637658pt" viewBox="0 0 722.657882 894.637658"
 preserveAspectRatio="xMidYMid meet">
<metadata>
Created by potrace 1.16, written by Peter Selinger 2001-2019
</metadata>
<g transform="translate(-150.618990,938.979586) scale(0.100000,-0.100000)"
fill="#000000" stroke="none">
<path d="M5071 9379 c-14 -5 -68 -40 -120 -78 -557 -396 -1134 -700 -1682
-886 -471 -160 -931 -250 -1405 -274 -248 -12 -250 -14 -283 -326 -147 -1378
-77 -2636 204 -3697 406 -1529 1341 -2681 2785 -3431 197 -102 485 -233 534
-242 41 -8 113 21 402 160 898 433 1609 1017 2138 1754 593 827 935 1852 1050
3151 28 315 39 567 39 945 0 485 -23 915 -74 1380 -32 289 -36 294 -278 306
-701 37 -1381 215 -2041 535 -328 160 -568 300 -902 528 -283 192 -302 201
-367 175z m289 -460 c563 -376 1047 -614 1625 -802 390 -126 874 -222 1225
-242 58 -3 119 -8 136 -11 l30 -4 17 -183 c89 -955 83 -1711 -18 -2507 -149
-1168 -510 -2096 -1103 -2840 -499 -625 -1143 -1123 -1942 -1500 l-205 -97
-50 21 c-95 39 -481 233 -600 303 -1414 818 -2233 2002 -2539 3671 -56 301
-95 615 -128 1022 -20 246 -17 1225 5 1515 28 365 49 579 58 591 5 6 64 14
135 18 534 28 1184 188 1761 432 378 159 922 466 1258 708 50 36 92 64 95 63
3 -1 111 -72 240 -158z"/>
<path d="M5055 8374 c-16 -9 -98 -59 -181 -110 -735 -452 -1577 -773 -2279
-869 -203 -28 -221 -46 -236 -237 -19 -259 -28 -746 -19 -1034 50 -1505 359
-2547 1011 -3404 397 -522 959 -978 1609 -1305 159 -80 168 -80 352 14 921
472 1632 1181 2035 2031 261 548 419 1147 502 1895 50 451 67 917 51 1384 -14
411 -23 528 -44 568 -24 48 -70 69 -176 83 -159 20 -476 87 -645 135 -603 172
-1147 417 -1729 778 -143 89 -193 103 -251 71z m390 -479 c651 -369 1370 -639
2001 -750 82 -15 152 -30 156 -33 4 -4 12 -160 18 -347 23 -708 -27 -1430
-141 -1995 -186 -931 -544 -1647 -1113 -2228 -226 -231 -418 -391 -681 -569
-207 -139 -530 -323 -568 -323 -7 0 -87 41 -178 91 -1125 626 -1801 1506
-2115 2754 -155 618 -231 1455 -205 2240 6 171 14 326 17 346 l5 36 102 17
c707 116 1536 439 2259 880 l121 74 101 -62 c55 -35 155 -93 221 -131z"/>
<path d="M6483 6485 c-73 -16 -147 -51 -204 -97 -36 -28 -371 -384 -829 -878
-173 -187 -668 -720 -696 -750 l-24 -24 -252 251 c-187 185 -267 258 -306 277
-216 109 -491 50 -626 -134 -114 -155 -133 -348 -50 -519 34 -68 69 -107 482
-527 245 -250 466 -467 491 -484 145 -93 323 -100 487 -20 89 43 108 61 414
395 91 98 293 317 450 485 157 168 425 456 596 640 171 184 368 396 438 470
104 110 135 150 169 219 39 79 42 89 45 187 4 83 0 116 -16 171 -52 170 -195
301 -369 338 -82 18 -119 18 -200 0z m151 -276 c124 -31 191 -176 137 -295
-18 -40 -259 -304 -946 -1039 -154 -164 -336 -360 -404 -435 -188 -203 -504
-541 -542 -577 -19 -17 -47 -37 -64 -43 -49 -19 -128 -15 -177 8 -54 27 -864
853 -891 909 -27 57 -20 158 15 211 39 59 121 97 192 89 30 -3 67 -12 82 -20
16 -8 157 -144 313 -301 157 -157 299 -292 317 -301 38 -18 79 -19 121 -4 29
10 155 143 1287 1359 391 420 388 417 442 434 61 18 65 18 118 5z"/>
</g>
</svg>
