<?xml version="1.0" standalone="no"?>
<!DOCTYPE svg PUBLIC "-//W3C//DTD SVG 20010904//EN"
 "http://www.w3.org/TR/2001/REC-SVG-20010904/DTD/svg10.dtd">
<svg version="1.0" xmlns="http://www.w3.org/2000/svg"
 width="858.000021pt" height="675.661329pt" viewBox="0 0 858.000021 675.661329"
 preserveAspectRatio="xMidYMid meet">
<metadata>
Created by potrace 1.16, written by Peter Selinger 2001-2019
</metadata>
<g transform="translate(-82.999979,844.811292) scale(0.100000,-0.100000)"
fill="#000000" stroke="none">
<path d="M2925 8440 c-12 -4 -26 -14 -32 -22 -11 -12 -116 -278 -318 -803 -40
-104 -110 -284 -155 -400 -45 -115 -137 -354 -205 -530 -68 -176 -178 -462
-245 -635 -67 -173 -155 -400 -195 -505 -40 -104 -159 -410 -263 -680 -685
-1766 -682 -1758 -682 -1794 0 -18 14 -47 38 -78 20 -27 91 -120 157 -207 66
-87 129 -164 140 -172 20 -13 120 -29 825 -133 365 -54 1076 -160 1510 -226
91 -14 318 -47 505 -75 338 -50 847 -126 1610 -240 220 -33 508 -76 640 -96
132 -19 386 -58 565 -84 179 -27 369 -55 422 -62 136 -17 137 -16 209 183 30
85 134 372 231 639 97 267 378 1039 623 1715 246 677 528 1453 627 1725 99
272 215 592 258 710 43 118 110 303 149 410 39 107 71 209 71 226 0 24 -38 89
-151 264 -84 127 -161 238 -173 245 -23 15 -196 35 -1191 135 -330 33 -748 76
-930 95 -181 19 -490 50 -685 70 -195 19 -481 49 -635 65 -154 16 -545 57
-870 90 -324 33 -723 73 -885 90 -931 96 -927 96 -965 80z m572 -235 c241 -25
787 -81 1213 -124 426 -44 1020 -105 1320 -136 300 -30 739 -75 975 -100 237
-24 720 -74 1075 -110 752 -76 800 -81 806 -88 2 -2 -25 -85 -62 -183 -64
-175 -1039 -2851 -1315 -3614 -465 -1281 -562 -1546 -568 -1555 -4 -8 -121 6
-356 41 -192 29 -627 93 -965 144 -338 50 -1006 149 -1485 221 -1548 230
-1860 276 -2470 365 -330 49 -601 88 -602 89 -2 1 74 199 168 441 180 462 359
926 564 1459 110 286 367 950 525 1360 32 83 135 348 228 590 210 544 461
1192 473 1223 5 12 15 22 23 22 8 0 212 -20 453 -45z m5634 -797 c40 -62 72
-120 71 -128 0 -8 -38 -114 -82 -235 -96 -260 -1303 -3578 -1615 -4440 -119
-330 -220 -603 -224 -607 -4 -5 -42 39 -85 97 l-78 105 150 412 c83 227 207
571 277 763 241 664 494 1361 623 1715 72 195 243 668 382 1050 519 1430 501
1380 505 1380 2 0 36 -51 76 -112z m-7335 -4558 c335 -50 699 -104 809 -121
110 -16 412 -61 670 -100 1258 -187 1585 -235 2145 -319 333 -50 729 -109 880
-131 650 -96 653 -96 669 -118 9 -11 38 -47 65 -81 l48 -61 -33 5 c-68 12
-789 119 -1649 246 -223 33 -538 80 -700 105 -162 25 -464 70 -670 100 -206
31 -568 85 -805 120 -236 35 -612 91 -835 125 -823 122 -1075 160 -1095 165
-12 2 -43 33 -71 67 -64 80 -68 88 -52 88 8 0 288 -41 624 -90z"/>
<path d="M3109 8115 c-15 -8 -35 -34 -47 -62 -19 -45 -351 -897 -600 -1543
-61 -157 -147 -379 -192 -495 -84 -216 -92 -249 -71 -288 27 -50 -31 -41 806
-132 281 -31 590 -65 688 -75 165 -19 181 -19 212 -4 19 9 40 29 48 47 8 18
92 237 187 487 248 655 358 944 528 1390 83 217 154 407 157 421 8 32 -16 83
-45 99 -11 6 -217 31 -457 55 -241 24 -593 60 -783 80 -387 39 -395 40 -431
20z m264 -200 c31 -4 57 -7 57 -8 0 -4 -43 -114 -170 -442 -71 -181 -188 -483
-260 -670 -299 -772 -353 -911 -366 -935 l-12 -26 -99 12 c-54 6 -99 12 -100
13 -3 2 29 86 227 596 98 253 242 624 320 825 77 201 166 429 197 508 l56 143
46 -5 c25 -3 72 -8 104 -11z m502 -50 c304 -31 335 -35 335 -46 0 -5 -35 -100
-79 -211 -43 -112 -142 -367 -219 -568 -78 -201 -215 -556 -305 -790 -90 -234
-170 -442 -176 -462 -9 -29 -18 -38 -34 -38 -25 0 -564 58 -615 66 -40 6 -44
-12 49 224 142 366 689 1781 689 1784 0 2 7 20 15 40 15 34 17 36 53 31 20 -3
150 -16 287 -30z m623 -64 c46 -5 85 -11 87 -13 3 -2 -16 -58 -41 -124 -25
-65 -94 -247 -154 -404 -60 -157 -150 -393 -200 -525 -50 -132 -156 -411 -235
-620 -79 -209 -146 -387 -149 -395 -6 -14 -21 -14 -140 -1 l-134 14 10 26 c5
14 29 78 53 141 24 63 130 338 235 610 105 272 261 678 347 902 l156 407 41
-5 c23 -2 78 -9 124 -13z"/>
<path d="M5004 7918 c-12 -5 -31 -26 -42 -46 -22 -40 -213 -538 -729 -1902
-63 -168 -120 -320 -125 -338 -13 -47 6 -98 44 -118 21 -11 272 -43 827 -105
438 -49 806 -89 818 -89 41 0 78 45 111 132 17 46 122 326 232 623 111 297
289 774 396 1060 156 415 194 526 189 552 -6 31 -54 83 -78 83 -7 0 -235 23
-507 50 -272 28 -627 64 -789 80 -327 33 -318 33 -347 18z m271 -207 c54 -5
69 -10 67 -21 -3 -14 -85 -227 -252 -655 -43 -110 -114 -294 -158 -410 -200
-518 -365 -941 -372 -956 -8 -14 -21 -14 -115 -3 -58 6 -107 13 -109 15 -2 2
72 202 164 444 92 242 262 690 378 995 116 305 215 568 221 583 10 26 13 27
58 22 27 -4 80 -10 118 -14z m520 -52 c176 -18 324 -35 328 -39 4 -4 -13 -60
-38 -126 -26 -65 -132 -342 -237 -614 -176 -460 -261 -681 -433 -1132 -64
-168 -70 -178 -94 -178 -44 1 -633 69 -638 74 -3 3 86 240 197 528 111 288
288 747 393 1021 106 273 194 497 197 497 3 1 149 -14 325 -31z m623 -65 c39
-4 72 -10 72 -15 0 -5 -67 -188 -149 -406 -82 -219 -249 -666 -371 -993 -122
-327 -228 -609 -235 -625 l-12 -31 -124 14 c-68 7 -126 15 -128 18 -6 6 9 47
569 1504 108 283 200 523 204 534 5 16 13 18 54 13 26 -4 80 -9 120 -13z"/>
<path d="M6890 7703 c-25 -23 -58 -103 -194 -468 -90 -242 -219 -586 -286
-765 -343 -919 -390 -1048 -390 -1078 0 -45 43 -87 96 -96 21 -3 394 -45 828
-92 786 -86 788 -86 815 -67 42 31 18 -28 411 1043 82 223 187 511 235 640
187 510 228 626 228 653 0 34 -18 69 -45 86 -14 9 -184 30 -457 57 -240 23
-593 59 -785 78 -426 44 -417 44 -456 9z m265 -185 c61 -6 112 -12 114 -14 2
-2 -26 -79 -62 -171 -66 -169 -461 -1194 -629 -1633 -49 -129 -93 -238 -96
-242 -7 -6 -220 16 -228 24 -2 2 120 335 271 739 151 404 323 863 383 1021 75
201 112 288 122 288 8 0 65 -5 125 -12z m618 -64 c152 -16 277 -32 277 -36 0
-5 -54 -151 -121 -326 -67 -174 -188 -492 -269 -707 -312 -820 -381 -1000
-390 -1009 -8 -8 -586 47 -642 62 l-27 7 43 110 c23 61 102 265 175 455 73
190 187 484 253 655 66 170 162 422 215 560 52 137 97 254 100 259 3 5 29 6
57 3 28 -3 176 -18 329 -33z m532 -54 c49 -6 91 -13 93 -15 4 -4 -47 -144
-278 -770 -42 -115 -164 -447 -270 -736 -106 -290 -196 -532 -200 -539 -6 -10
-34 -10 -133 0 l-125 12 18 52 c10 28 47 128 83 221 36 94 104 274 152 400 48
127 138 363 200 525 88 232 248 656 316 838 10 25 17 26 144 12z"/>
<path d="M2133 5576 c-17 -8 -36 -23 -41 -33 -5 -10 -125 -315 -265 -678 -140
-363 -305 -788 -367 -945 -180 -460 -200 -516 -200 -549 0 -45 16 -71 53 -85
18 -7 391 -64 830 -127 l797 -114 37 20 c43 23 27 -13 235 535 82 217 185 487
228 600 43 113 156 411 251 662 l173 458 -17 36 c-11 22 -29 40 -50 48 -28 12
-749 95 -1347 156 -107 11 -215 22 -240 25 -28 3 -57 -1 -77 -9z m307 -220 c0
-7 -126 -338 -281 -736 -154 -399 -321 -832 -371 -963 -72 -188 -94 -236 -107
-233 -9 2 -55 10 -103 16 l-87 12 29 76 c15 43 91 239 168 437 77 198 158 407
181 465 86 226 292 759 361 935 7 20 12 20 109 11 64 -6 101 -13 101 -20z
m460 -41 c173 -19 320 -35 326 -35 6 0 -33 -116 -88 -257 -54 -142 -169 -440
-254 -663 -86 -223 -181 -472 -213 -555 -32 -82 -87 -224 -121 -315 -35 -91
-66 -168 -69 -172 -4 -4 -156 13 -338 39 -321 45 -331 47 -323 67 16 43 374
967 432 1116 33 85 95 245 138 355 43 110 99 257 126 328 26 70 53 127 59 127
6 0 152 -16 325 -35z m612 -66 c57 -6 104 -12 106 -14 2 -2 -28 -86 -66 -187
-84 -220 -276 -725 -342 -898 -26 -69 -111 -294 -190 -500 -78 -206 -146 -379
-150 -384 -8 -8 -270 21 -270 30 0 2 75 198 166 436 91 238 235 613 319 833
130 339 199 520 254 668 12 32 20 32 173 16z"/>
<path d="M4032 5375 c-22 -19 -45 -65 -97 -202 -37 -98 -101 -266 -142 -373
-41 -107 -145 -379 -230 -605 -85 -225 -177 -468 -205 -540 -149 -390 -198
-529 -198 -555 0 -18 11 -42 28 -61 l27 -30 811 -116 c499 -71 821 -113 838
-109 43 11 68 46 105 147 44 124 173 472 523 1409 259 692 289 779 282 809
-18 70 16 64 -855 162 -437 49 -808 89 -826 89 -19 0 -43 -10 -61 -25z m250
-191 c42 -3 81 -10 87 -13 7 -5 -21 -89 -80 -241 -50 -129 -101 -262 -113
-295 -29 -79 -568 -1479 -570 -1482 -2 -2 -196 26 -208 30 -4 1 19 72 51 157
81 214 295 781 441 1165 67 176 153 405 192 508 70 187 72 189 98 183 15 -2
61 -8 102 -12z m538 -59 c168 -19 313 -35 323 -35 24 0 22 -13 -24 -131 -45
-115 -66 -170 -394 -1029 -124 -327 -252 -662 -283 -743 -54 -143 -57 -148
-82 -144 -14 3 -161 24 -327 48 -186 26 -303 47 -303 53 0 6 25 76 56 156 31
80 102 267 159 415 57 149 175 457 263 685 131 342 221 576 283 738 5 12 12
22 16 22 5 0 145 -16 313 -35z m613 -67 c59 -6 107 -16 107 -21 0 -5 -76 -213
-169 -461 -93 -248 -223 -597 -290 -776 -182 -492 -299 -801 -305 -808 -7 -6
-257 25 -265 33 -2 3 3 24 12 47 34 92 354 936 437 1153 49 127 129 338 180
470 151 399 141 375 164 375 12 0 69 -5 129 -12z"/>
<path d="M5946 5168 c-35 -36 -26 -13 -532 -1373 -146 -390 -283 -758 -304
-816 -22 -59 -42 -119 -45 -135 -8 -43 25 -90 72 -104 45 -12 1574 -230 1618
-230 37 0 70 22 89 59 8 15 85 221 171 457 284 778 306 838 340 929 214 575
345 943 345 972 0 46 -42 88 -96 97 -52 8 -1585 176 -1608 176 -10 0 -32 -15
-50 -32z m350 -198 c7 0 -9 -52 -38 -127 -41 -106 -565 -1475 -710 -1856 -32
-82 -45 -106 -57 -103 -9 2 -55 10 -103 17 -49 7 -88 15 -88 19 0 13 13 48
525 1420 129 344 236 632 240 641 5 13 18 14 113 3 59 -7 112 -13 118 -14z
m467 -51 c169 -18 312 -36 317 -39 10 -6 5 -20 -155 -440 -53 -140 -161 -426
-240 -635 -337 -892 -386 -1020 -393 -1026 -4 -3 -155 14 -335 39 -326 46
-328 47 -322 69 3 12 149 399 326 860 176 461 350 917 386 1013 70 186 78 201
96 195 7 -2 151 -18 320 -36z m576 -64 c68 -8 125 -16 127 -18 3 -3 -20 -67
-151 -422 -181 -490 -326 -887 -451 -1230 -74 -203 -144 -393 -155 -421 l-20
-51 -127 19 c-70 10 -132 21 -138 23 -8 2 7 54 43 147 30 79 153 404 273 723
120 319 273 724 339 900 67 176 123 326 126 333 2 6 6 12 7 12 2 0 59 -7 127
-15z"/>
</g>
</svg>
