<?xml version="1.0" standalone="no"?>
<!DOCTYPE svg PUBLIC "-//W3C//DTD SVG 20010904//EN"
 "http://www.w3.org/TR/2001/REC-SVG-20010904/DTD/svg10.dtd">
<svg version="1.0" xmlns="http://www.w3.org/2000/svg"
 width="602.974472pt" height="768.114699pt" viewBox="0 0 602.974472 768.114699"
 preserveAspectRatio="xMidYMid meet">
<metadata>
Created by potrace 1.16, written by Peter Selinger 2001-2019
</metadata>
<g transform="translate(-210.525528,896.114699) scale(0.100000,-0.100000)"
fill="#000000" stroke="none">
<path d="M5044 8939 c-100 -38 -181 -136 -204 -245 -5 -27 -86 -422 -180 -879
-94 -456 -180 -877 -192 -933 -32 -156 -25 -178 111 -347 70 -88 122 -187 146
-280 l15 -60 -60 -53 c-117 -105 -199 -251 -222 -396 l-12 -74 -106 -65 c-58
-36 -229 -141 -380 -234 -151 -93 -471 -290 -710 -438 -239 -148 -565 -349
-725 -447 -159 -99 -309 -197 -332 -220 -62 -61 -87 -125 -88 -223 0 -66 5
-90 26 -136 51 -108 152 -178 269 -187 80 -5 99 0 400 116 129 50 343 132 475
182 365 140 924 356 1069 412 164 65 189 88 235 218 18 52 46 119 62 150 l30
55 -6 -55 c-3 -30 -41 -363 -85 -740 -44 -377 -116 -995 -160 -1375 -44 -379
-96 -822 -115 -984 -40 -328 -39 -338 21 -391 l35 -30 757 0 c738 0 758 1 790
20 18 11 40 35 49 55 19 40 23 -3 -72 810 -35 303 -121 1034 -190 1625 -69
591 -128 1099 -131 1128 -4 28 -4 52 -1 52 3 0 58 -31 123 -68 269 -155 1304
-749 1641 -942 237 -136 380 -212 414 -220 148 -36 300 34 366 168 24 49 28
69 28 143 0 79 -3 92 -35 155 -34 66 -48 80 -355 342 -332 284 -381 326 -780
662 -132 112 -301 255 -375 318 -74 63 -154 124 -179 135 -43 19 -50 19 -165
6 -205 -24 -416 -12 -444 25 -5 6 -15 40 -21 76 -26 137 -126 298 -245 392
l-51 41 -5 1266 -5 1266 -25 50 c-73 147 -250 214 -406 154z m150 -252 c10 -7
18 -26 19 -42 0 -17 0 -550 -1 -1186 l-2 -1157 -87 1 c-49 0 -97 -3 -108 -6
-18 -6 -24 4 -53 90 -39 113 -78 184 -173 310 l-69 92 11 48 c6 26 57 278 114
558 260 1272 258 1265 286 1288 25 20 39 21 63 4z m-3 -2657 c225 -42 371
-258 325 -479 -8 -40 -27 -94 -42 -120 -36 -63 -114 -135 -182 -168 -52 -25
-67 -28 -167 -28 -102 0 -115 2 -175 31 -254 120 -313 452 -115 650 61 61 115
91 199 109 77 17 91 17 157 5z m644 -625 c80 -17 291 -19 404 -5 40 5 79 6 86
2 12 -6 809 -681 1220 -1031 305 -260 325 -280 325 -312 0 -34 -23 -59 -54
-59 -20 0 -357 189 -1061 595 -93 54 -307 177 -475 273 -270 155 -610 351
-618 357 -2 2 11 23 28 48 17 25 40 69 52 96 11 28 21 51 22 51 0 0 33 -7 71
-15z m-1326 -57 c10 -24 35 -67 54 -96 l36 -53 -52 -64 c-71 -86 -131 -190
-186 -319 l-46 -110 -70 -28 c-39 -15 -266 -102 -505 -194 -239 -92 -516 -198
-615 -236 -497 -192 -652 -251 -675 -258 -49 -14 -88 24 -78 76 2 11 120 90
304 203 165 102 516 319 779 481 263 162 602 372 754 467 152 94 277 171 279
172 1 1 11 -18 21 -41z m573 -384 c47 -4 100 -2 138 5 34 7 64 11 66 8 2 -2
22 -163 44 -358 21 -195 58 -510 80 -699 22 -190 59 -505 81 -700 22 -195 60
-524 85 -730 24 -206 59 -503 77 -660 l32 -285 -559 -3 c-307 -1 -561 0 -564
3 -3 3 2 71 12 152 9 82 48 416 86 743 198 1698 290 2497 290 2527 0 11 7 14
28 9 15 -3 62 -9 104 -12z"/>
</g>
</svg>
